<svg id="Layer_1" data-name="Layer 1" xmlns="http://www.w3.org/2000/svg" viewBox="0 0 1080 900.82"><defs><style>.cls-1{fill:#1f1f1f;stroke:#535353;stroke-miterlimit:10;stroke-width:38.71px;}.cls-2{fill:#fff;}</style></defs><title>3DDefault</title><g id="Background"><rect class="cls-1" x="17.47" y="14.57" width="1045.06" height="871.68"/></g><path class="cls-2" d="M785.61,570.2Q664.83,381.77,544.11,193.29c-2.51-3.92-3.45-4.74-6.37-.17Q417.11,381.66,296.17,570c-2.31,3.59-2.54,5.17,1.64,7.53Q416.54,644.65,535,712.24c4.3,2.45,7.27,2.55,11.57.1Q634.78,662,723.16,612q30.76-17.46,61.48-35c1.27-.72,3.26-.85,3.28-3C787.13,572.65,786.39,571.41,785.61,570.2Zm-245,110.1L500,657.18q-79.36-45.07-158.76-90.09c-3.64-2.06-5.06-3.15-2.21-7.58q99.69-155,199-310.27c.65-1,1.33-2,2.64-3.91Z"/></svg>