<svg id="Layer_1" data-name="Layer 1" xmlns="http://www.w3.org/2000/svg" viewBox="0 0 1080 900.82"><defs><style>.cls-1{fill:#1f1f1f;stroke:#535353;stroke-miterlimit:10;stroke-width:38.71px;}.cls-2{fill:#fff;}</style></defs><title>3DDefault</title><g id="Background"><rect class="cls-1" x="17.47" y="14.57" width="1045.06" height="871.68"/></g><path class="cls-2" d="M814,451.43C814,602.21,691.59,724.59,540.88,724.59,390,724.6,267.5,601.91,267.73,450.91c.22-150.8,122.66-272.79,273.64-272.66C691.61,178.38,814.09,301.1,814,451.43ZM382.27,524.11c-.46-3.16-1-5.6-1.15-8.07a8.32,8.32,0,0,1,6.67-9.14c4-.72,7.93,2.16,8.95,6.83a75.86,75.86,0,0,1,1.91,11.73c.19,3.3,1.88,4.35,4.63,4.78,26.35,4.09,52.59,9.26,79.08,12a576.91,576.91,0,0,0,128.09-1.18c22.71-2.7,45.21-7.2,67.81-10.86,3-.49,4.63-1.64,4.89-5.11.43-5.74,1.65-11.42,2.38-17.14a458.93,458.93,0,0,0-2-127.89c-.71-4.63-2.48-6.5-7-6.87a53.69,53.69,0,0,1-10-2.18c-4.63-1.32-6.84-4.54-6.39-9.34.4-4.35,3.91-7.3,8.67-7.16,3,.08,5.93.66,10,1.15-4.25-13.58-7.77-26.62-12.39-39.27-12.43-34-29-65.73-55.32-91.31-26.53-25.76-57.35-37.43-94.38-27.27a15.13,15.13,0,0,1-4.8.38c-3.93-.27-7.84-.72-11.76-1.1l.74,1.85c-1.8,2.69-3.08,6.05-5.5,8-6.36,5-13.19,9.44-19.87,14-4,2.74-7.66,1.65-10.72-1.46s-2.7-6.92-.17-10.31c.81-1.09,2.31-1.66,3.49-2.48L467,205.44q-79.89,25.09-130.83,91.82c-24.27,31.95-49.88,92.5-47.29,111.3,3.7-2.95,7.3-5.92,11-8.76,4.92-3.77,10.57-3.49,13.37.56s1.2,8.92-3.47,12.63c-4.08,3.25-7.84,6.9-11.88,10.21-3.53,2.89-7.24,5.56-11.57,8.85-6.71,26,5,45.55,27.12,60.78C334.36,507.2,357.48,516.49,382.27,524.11ZM467,696.36c-3.05-6-2.78-10.61.47-13.23,3.42-2.76,7.58-2,12.76,1.91s10.4,7.12,15.51,10.81c1.84,1.33,3.93,2.82,4.91,4.74,2.4,4.7,5.71,6.38,10.74,5.5a28.72,28.72,0,0,1,10.41-.19c13.85,2.82,27.55,3,41.25-.74,24.93-6.79,43.79-22.34,59.75-41.79,25.14-30.65,40.66-66.15,51.38-104,1.14-4,2.06-8.1,3.22-12.71A536.39,536.39,0,0,1,584.5,560.1c-55.54,3.34-110.68.67-165.44-9.61-8.59-1.61-17-6.19-26.29-3a5.06,5.06,0,0,1-4.4-1.51c-3.68-4.72-9.21-5.24-14.25-6.9-30.63-10.08-60.46-21.69-84.93-43.73-.13-.12-.58.12-.87.19C302.51,588.78,376.43,671.74,467,696.36ZM615.62,206.07l-.45,1a15.92,15.92,0,0,0,1.4,1.55c15.2,13.07,27.62,28.48,38.27,45.37,19.75,31.3,32.41,65.47,41,101.31,1.84,7.64,8.88,14.23,4.56,23.09a457,457,0,0,1,3.1,126.81c-.74,6.39-1.62,12.76-2.57,20.19,10.89-4,21-7.24,30.8-11.32,20.08-8.39,39.38-18.21,54.28-34.68,14-15.45,15.54-27.6,6.47-46.35a9.29,9.29,0,0,1,.77-10.13,11,11,0,0,0,1.87-7.2q-24-141.94-155.46-200.8C631.88,211.46,623.65,209,615.62,206.07ZM793.42,495.6c-8.31,5.93-16.22,12.2-24.72,17.51-20.8,13-43.6,21.43-67.13,27.94-3.86,1.07-5.29,2.9-6.39,6.65-5.25,18-10.07,36.13-16.72,53.59C665.64,635,647.3,665.46,620.82,690.5c-2.21,2.09-4.46,4.13-7.5,7C709.41,669.79,779.9,584.41,793.42,495.6Z"/><path class="cls-2" d="M381.35,378.93c-2,.47-3.77.8-5.46,1.28-4.88,1.4-8.35-.72-10.05-4.95s-.43-9,3.88-10.58A201.12,201.12,0,0,1,397.5,357c2.24-.45,6.48,2.18,7.5,4.44s.38,7.33-1.42,8.68c-4.4,3.34-4.62,7.81-5.53,12.25-.58,2.82-.81,5.7-1.27,8.55-.83,5.18-3.87,7.72-8.81,7.44s-7.75-3.35-7.61-8.56C380.45,386.3,381,382.77,381.35,378.93Z"/><path class="cls-2" d="M454.05,357c-.31,3.87-2.84,6.72-7.16,7.56C439,366.08,431,367.42,423,368.61a8.55,8.55,0,0,1-9.64-6.72,8.09,8.09,0,0,1,6-9.52c8.6-1.77,17.28-3.29,26-4.19C450.78,347.62,454.09,351.32,454.05,357Z"/><path class="cls-2" d="M376.25,473.17c-.24-11.82,2.06-15.65,8.21-16,5.3-.3,7.61,2.92,8.55,12.55.63,6.45,1,12.94,1.31,19.41.24,5.34-2.83,8.79-7.81,9.16s-8.05-2-8.72-7.46C377,484.21,376.62,477.54,376.25,473.17Z"/><path class="cls-2" d="M476.75,361.48c-9.38.6-14.25-2.61-14.42-7.45s3.8-8.24,10.22-8.85c7.34-.69,14.65-1.6,22-2.11,5.72-.39,8.62,2.21,9.12,7.49.48,5.11-2.2,8.26-7.76,8.89C488.59,360.28,481.26,361,476.75,361.48Z"/><path class="cls-2" d="M433.9,271.89a21.31,21.31,0,0,1-.7,3.64c-4.15,8.38-8,17-12.81,24.93-1.23,2-6.06,3.09-8.85,2.57a6.5,6.5,0,0,1-5-8.8A206.17,206.17,0,0,1,418.91,268c1.1-1.94,6.31-3,9-2.19S432.33,270.17,433.9,271.89Z"/><path class="cls-2" d="M350.08,370.55c3.15,3,6.73,4.88,7.4,7.5s-.58,7.67-2.6,8.84A189.49,189.49,0,0,1,329,399c-1.87.72-5.74-1.46-7.54-3.38-2.64-2.8-3.34-7.6,0-9.69C330.47,380.43,340,375.89,350.08,370.55Z"/><path class="cls-2" d="M461.68,231c-1.19,2.61-1.68,4.38-2.69,5.77-4.52,6.3-9.16,12.51-13.8,18.71-3.43,4.58-8,5.58-12.18,2.77-4-2.68-5-7.27-1.79-11.84a178.22,178.22,0,0,1,15.2-19.64c1.94-2.09,6.59-3.1,9.48-2.42C458.26,224.94,459.84,228.76,461.68,231Z"/><path class="cls-2" d="M414.06,318.8c-.49,1.54-1,3.07-1.46,4.61-2.16,6.85-4.27,13.72-6.49,20.55-1.5,4.64-5.86,7.42-9.83,6.44a8.43,8.43,0,0,1-6-10.53c2.22-8.14,4.75-16.21,7.51-24.19,1.49-4.29,5.34-6.55,9.46-4.95,3,1.16,5.17,4.51,7.71,6.88Z"/><path class="cls-2" d="M376.4,437c.34-6.3.6-12.61,1.06-18.91.49-6.87,4.07-10.74,9.3-10.32s7.95,5.14,7.3,11.78c-.6,6.1-1.11,12.21-1.39,18.33-.36,7.8-3.07,11.41-8.65,11.06S375.9,444.51,376.4,437Z"/><path class="cls-2" d="M533.12,342.08c3.78,0,7.56-.11,11.33,0,5.63.21,8.64,3.12,8.7,8.16s-2.79,8.14-8.46,8.26q-11.85.27-23.73,0c-5.17-.1-9-3.7-9.06-8.11-.1-4.69,3.73-8.17,9.36-8.33C525.21,342,529.17,342.08,533.12,342.08Z"/><path class="cls-2" d="M570.16,342.1c9.42.65,16.82.94,24.16,1.72,5.86.61,9.09,4.69,8.43,9.81-.56,4.4-4.52,7-10.16,6.6-7.19-.49-14.39-.94-21.58-1.54-6.31-.52-8.85-3.2-8.5-8.66C562.84,345,566.56,342,570.16,342.1Z"/><path class="cls-2" d="M622.3,347c7.85,1.16,15.72,2.19,23.53,3.54,4.87.85,7.41,4.32,6.69,8.76-.75,4.64-3.81,7.07-8.36,6.66-8.08-.74-16.13-1.8-24.15-3-6-.9-8.36-3.68-7.8-8.3C612.82,349.53,616.34,347,622.3,347Z"/><path class="cls-2" d="M463.66,674.67c-1.37,1.81-2.64,5.25-4.69,5.82-2.87.78-7.64.59-9.28-1.25a219.88,219.88,0,0,1-17.37-22.65c-2.66-3.9-.79-7.61,3.09-10.06,3.6-2.29,7.36-2.62,10.17.94,5.57,7,10.86,14.32,16.13,21.6C462.59,670.3,462.77,672,463.66,674.67Z"/><path class="cls-2" d="M435.83,632.92c-2,2.67-3.52,6.36-6.2,7.76-3.7,1.94-7.57-.12-9.56-3.85-4.05-7.63-8-15.35-11.52-23.22a7.67,7.67,0,0,1,3.79-10.48A7.84,7.84,0,0,1,423,606.68c3.85,7.33,7.44,14.8,11.08,22.24a13.93,13.93,0,0,1,.74,3.12Z"/><path class="cls-2" d="M415.51,587.92c-2.05,1.9-3.9,4.5-6.41,5.74-3.94,2-8.22.27-9.61-3.41a188.87,188.87,0,0,1-8.16-27.19c-.47-2.16,2.78-6.85,5.07-7.43,2.7-.68,8.12,1,9,3.1C409.31,567.73,412,577.26,415.51,587.92Z"/><path class="cls-2" d="M747.73,382.77c-.2,7.09-4.82,10.86-10.18,9.18-8.37-2.63-16.62-5.73-24.72-9.12-4.31-1.81-6.2-6.84-4.46-10.3,2.09-4.17,5.58-6.28,10.2-4.68,8.13,2.81,16.28,5.66,24.11,9.18C745.17,378.15,746.66,381.49,747.73,382.77Z"/><path class="cls-2" d="M759.81,387.5c6.67-.21,29.32,14.78,29.93,19.39.39,2.9-.69,7.24-2.74,8.86s-6.82,1.82-9.15.48c-7.13-4.09-13.7-9.18-20.41-14-3.26-2.34-4.87-5.84-3-9.41C755.71,390.3,758.63,388.61,759.81,387.5Z"/></svg>