<svg id="Layer_1" data-name="Layer 1" xmlns="http://www.w3.org/2000/svg" viewBox="0 0 1080 900.82"><defs><style>.cls-1{fill:#1f1f1f;stroke:#535353;stroke-miterlimit:10;stroke-width:39.54px;}.cls-2{fill:#fff;}</style></defs><title>3DDefault</title><g id="Background"><rect class="cls-1" x="17.47" y="14.57" width="1045.06" height="871.68"/></g><path class="cls-2" d="M547.14,703c-47.14-.55-87.39-4.57-126.08-18.57-14.15-5.12-27.74-11.48-39.15-21.48a75.41,75.41,0,0,1-12.86-14.49c-7.28-10.89-7.41-22.64-2.31-34.59,8.2-19.21,16.62-38.34,24.45-57.7Q461.36,382.73,531.3,209.2c.47-1.17.67-2.69,1.53-3.41,2.46-2.08,5.26-5.38,7.82-5.29,2.86.11,6.87,2.81,8.15,5.46,4.39,9.06,7.8,18.6,11.58,28q74.4,184.24,148.81,368.49a51.93,51.93,0,0,0,3.29,6.8c8.76,15,8,29.67-2.57,43.41-11.21,14.5-26.83,22.76-43.33,29.49-25.94,10.57-53.16,15.87-80.92,18.43C570.76,701.91,555.77,702.44,547.14,703ZM398.93,583.44c45.82-22,93.31-27.89,141.76-27.9s96.24,5.78,142.11,27.89L540.86,231.88C493.32,349.65,446.42,465.82,398.93,583.44ZM538.42,685.52c30.53-.15,58.34-2.53,85.74-8.75,20.3-4.61,40.24-10.47,57.67-22.24,6.27-4.24,11.6-10.17,16.43-16.09a13.84,13.84,0,0,0,2.27-10.57,35.43,35.43,0,0,0-14.43-21.43c-17.3-12.16-36.8-18.93-57-23.82-40.54-9.8-81.7-11.73-123.13-8.4-28.49,2.29-56.5,7.22-83.23,17.86-12.46,5-25.27,10.17-33.79,20.72-10.45,13-11.68,20.84-.36,32.73,2.35,2.47,4.86,5.06,7.8,6.64,10.28,5.54,20.38,11.72,31.27,15.75C464.12,681.43,502.28,685.16,538.42,685.52Z"/></svg>