<svg id="Layer_1" data-name="Layer 1" xmlns="http://www.w3.org/2000/svg" viewBox="0 0 1080 900.82"><defs><style>.cls-1{fill:#1f1f1f;stroke:#535353;stroke-miterlimit:10;stroke-width:38.71px;}.cls-2{fill:#fff;}</style></defs><title>3DDefault</title><g id="Background"><rect class="cls-1" x="17.47" y="14.57" width="1045.06" height="871.68"/></g><path class="cls-2" d="M542.49,165.45c1.82,1.19,3.57,2.52,5.48,3.55q119.67,64.16,239.4,128.19c3.68,2,5.27,4,5.26,8.48q-.24,145.72,0,291.45c0,4-1.11,6.25-4.77,8.2q-121.26,64.74-242.34,129.8c-3.23,1.73-5.54,1.54-8.62-.11Q415.76,670,294.52,605.22c-3.42-1.82-4.53-3.89-4.52-7.71q.17-146-.05-292c0-4.55,1.73-6.45,5.33-8.37q119.75-64,239.4-128.19c1.93-1,3.72-2.32,5.58-3.49ZM524.38,689.92c.08-1.85.18-3,.18-4.06q0-117.78.1-235.54c0-3.84-1.51-5.47-4.63-7.14q-95.64-51.07-191.17-102.34c-1.56-.84-3.15-1.6-5.05-2.56-.11,1.55-.21,2.29-.21,3q0,118.6-.11,237.22c0,3.74,1.77,5.09,4.53,6.57q95.85,51.27,191.66,102.62C521,688.41,522.31,689,524.38,689.92Zm33.67.09c2.25-1.08,3.59-1.66,4.87-2.34q95.87-51.34,191.77-102.6c3.52-1.88,4.42-4.09,4.41-7.83Q759,460.81,759,344.39v-6.11c-2.52,1.21-4.34,2-6.09,3Q658.05,392,563.12,442.76c-3.76,2-5.2,4.13-5.19,8.52q.24,116.15.12,232.29ZM342.58,309.92c1.37.88,2,1.34,2.61,1.69q96.3,51.58,192.56,103.25c3.29,1.77,5.47.77,8.12-.65Q640.43,363.51,735,312.84c1.49-.8,2.91-1.76,4.72-2.87-1.54-.9-2.48-1.49-3.45-2q-95.55-51.21-191-102.51c-3.43-1.85-5.74-1.11-8.63.44q-83.73,44.94-167.51,89.81Z"/></svg>