<svg id="Layer_1" data-name="Layer 1" xmlns="http://www.w3.org/2000/svg" viewBox="0 0 1080 900.82"><defs><style>.cls-1{fill:#1f1f1f;stroke:#535353;stroke-miterlimit:10;stroke-width:38.71px;}.cls-2{fill:#fff;}</style></defs><title>3DDefault</title><g id="Background"><rect class="cls-1" x="17.47" y="14.57" width="1045.06" height="871.68"/></g><path class="cls-2" d="M749.22,463.08c0,63.91-.18,127.83.15,191.74.07,14.08-5.4,24.74-15.85,33.33-15.81,13-34.56,20-53.91,25.43-30.71,8.68-62.16,12.53-94,14.28a577.49,577.49,0,0,1-104.84-3.46c-30.87-3.93-61.37-9.76-89.38-24-8.87-4.51-17-10.84-24.57-17.39-8.55-7.4-10.94-17.77-10.93-28.92q.21-187.14.25-374.27c0-1.81.15-3.63,0-5.42-1.77-17.81,6.54-30.46,20.5-40.23,17.9-12.53,38.21-19.32,59.15-24.37,52.26-12.6,105.31-14.5,158.69-11.12,33.23,2.11,66,6.91,97.69,17.64,15.61,5.29,30.6,11.9,43.11,23.06,9.39,8.36,14.11,18.48,14.06,31.43C749.07,334.89,749.22,399,749.22,463.08Zm-23-161.75c-6.6,3.34-12.24,6.53-18.13,9.13-28,12.39-57.74,18.2-87.93,21.57-52.27,5.84-104.52,5.44-156.52-3.12-28.57-4.7-56.55-11.54-81.82-26.55a7.79,7.79,0,0,0-2.32-.38v7.34q.11,172.53,0,345.07c0,9,3.34,14.8,10.28,19.29A89,89,0,0,0,401,680.09c27.21,12.48,56.28,17.82,85.68,21.55a528.2,528.2,0,0,0,110.8,2.18c30.81-2.56,61.4-6.77,90.6-17.34,10.72-3.87,20.92-9.56,30.68-15.53,3.43-2.09,6-7.26,6.88-11.46,1.21-5.9.52-12.2.52-18.33q0-166.59,0-333.16Zm-173.32-81c-44.55.31-88.61,4.3-131.42,17.61-12.08,3.75-23.93,8.17-34,16.06-10.49,8.17-10.71,16.8-.15,24.73A87.51,87.51,0,0,0,405,288.89c25.39,10.95,52.33,16,79.56,19.52a525.41,525.41,0,0,0,104.81,3.12c32.81-2.29,65.3-6.72,96.7-17.1,12.35-4.08,24.61-8.56,34.42-17.57,7.36-6.76,7.36-13.68.18-20.49A34.42,34.42,0,0,0,712,250c-9.11-4.27-18.21-8.83-27.76-11.87C641.56,224.49,597.44,220.68,552.88,220.33Z"/></svg>