<?xml version="1.0" encoding="utf-8"?>
<!-- Generator: Adobe Illustrator 23.0.3, SVG Export Plug-In . SVG Version: 6.00 Build 0)  -->
<svg version="1.1" id="Layer_1" xmlns="http://www.w3.org/2000/svg" xmlns:xlink="http://www.w3.org/1999/xlink" x="0px" y="0px"
	 viewBox="0 0 1080 1080" enable-background="new 0 0 1080 1080" xml:space="preserve">
<g id="Background">
	
		<rect x="24.568" y="24.568" fill="#1F1F1F" stroke="#1F1F1F" stroke-width="61.1968" stroke-miterlimit="10" width="1030.864" height="1030.864"/>
	
		<rect x="24.568" y="24.568" display="none" fill="#453558" stroke="#BB86FC" stroke-width="61.1968" stroke-miterlimit="10" width="1030.864" height="1030.864"/>
	
		<text transform="matrix(1 0 0 1 1223.8177 1136.3682)" display="none" fill="#1D1D1B" enable-background="new    " font-family="'Arial-BoldMT'" font-size="172.5px">3D Shapes</text>
	<g id="Color_pallete" display="none">
		<rect x="-210.827" y="130.741" display="inline" fill="#424242" width="84.568" height="84.568"/>
		<rect x="-210.827" y="227.37" display="inline" fill="#453558" width="84.568" height="84.568"/>
		<rect x="-210.827" y="324" display="inline" fill="#BB86FC" width="84.568" height="84.568"/>
	</g>
</g>
<g id="Button">
	<g id="Brushes">
		<g display="none">
			<path display="inline" fill="#FFFFFF" d="M199.477,804.419h50.226c9.942,0,17.356,0.416,22.242,1.243
				c4.885,0.829,9.257,2.558,13.114,5.185c3.857,2.628,7.071,6.128,9.642,10.499c2.571,4.371,3.857,9.271,3.857,14.699
				c0,5.885-1.586,11.285-4.757,16.199c-3.171,4.915-7.472,8.601-12.899,11.057c7.656,2.228,13.542,6.03,17.656,11.399
				c4.114,5.371,6.171,11.686,6.171,18.942c0,5.714-1.328,11.271-3.986,16.671c-2.657,5.4-6.286,9.715-10.885,12.942
				c-4.6,3.228-10.272,5.215-17.013,5.957c-4.229,0.458-14.428,0.743-30.598,0.857h-42.769v-125.65H199.477z M224.846,825.332
				v29.055h16.628c9.884,0,16.028-0.141,18.428-0.429c4.342-0.514,7.757-2.014,10.242-4.5c2.486-2.486,3.728-5.755,3.728-9.814
				c0-3.885-1.071-7.041-3.214-9.471c-2.143-2.428-5.329-3.9-9.557-4.414c-2.515-0.286-9.743-0.429-21.684-0.429h-14.571V825.332z
				 M224.846,875.3v33.598h23.484c9.142,0,14.941-0.257,17.399-0.771c3.771-0.686,6.842-2.357,9.214-5.014
				c2.371-2.657,3.557-6.214,3.557-10.671c0-3.771-0.915-6.971-2.743-9.599c-1.829-2.627-4.472-4.543-7.928-5.742
				c-3.458-1.2-10.957-1.8-22.499-1.8h-20.484V875.3z"/>
			<path display="inline" fill="#FFFFFF" d="M349.039,930.069h-24.084v-91.023h22.37v12.942c3.828-6.114,7.27-10.142,10.328-12.085
				c3.056-1.941,6.527-2.914,10.414-2.914c5.485,0,10.77,1.514,15.856,4.543l-7.457,20.999c-4.058-2.627-7.829-3.943-11.314-3.943
				c-3.372,0-6.229,0.93-8.571,2.786c-2.343,1.857-4.186,5.215-5.528,10.071c-1.343,4.857-2.014,15.029-2.014,30.513
				L349.039,930.069L349.039,930.069z"/>
			<path display="inline" fill="#FFFFFF" d="M454.205,930.069v-13.628c-3.315,4.857-7.671,8.687-13.071,11.485
				c-5.4,2.798-11.099,4.2-17.099,4.2c-6.115,0-11.6-1.343-16.456-4.028c-4.858-2.686-8.372-6.457-10.542-11.314
				c-2.172-4.855-3.257-11.571-3.257-20.142v-57.597h24.084v41.826c0,12.801,0.442,20.643,1.328,23.527
				c0.885,2.886,2.499,5.173,4.843,6.857c2.342,1.686,5.314,2.528,8.914,2.528c4.114,0,7.8-1.127,11.057-3.385
				c3.257-2.257,5.485-5.057,6.685-8.4s1.8-11.528,1.8-24.556v-38.398h24.084v91.023h-22.37V930.069z"/>
			<path display="inline" fill="#FFFFFF" d="M493.031,904.099l24.17-3.685c1.029,4.685,3.113,8.242,6.257,10.671
				c3.142,2.43,7.542,3.643,13.199,3.643c6.228,0,10.914-1.143,14.056-3.428c2.114-1.599,3.171-3.741,3.171-6.428
				c0-1.828-0.571-3.343-1.714-4.543c-1.2-1.143-3.885-2.198-8.057-3.171c-19.428-4.285-31.742-8.198-36.941-11.742
				c-7.2-4.914-10.799-11.742-10.799-20.485c0-7.885,3.113-14.513,9.342-19.885c6.227-5.37,15.884-8.057,28.97-8.057
				c12.456,0,21.713,2.029,27.77,6.085c6.057,4.058,10.228,10.058,12.514,17.999l-22.713,4.2c-0.971-3.543-2.814-6.257-5.528-8.142
				c-2.714-1.886-6.585-2.828-11.614-2.828c-6.342,0-10.885,0.887-13.628,2.657c-1.829,1.257-2.743,2.886-2.743,4.885
				c0,1.714,0.799,3.171,2.4,4.371c2.171,1.6,9.67,3.857,22.499,6.771c12.828,2.914,21.784,6.485,26.87,10.714
				c5.028,4.285,7.542,10.257,7.542,17.913c0,8.344-3.486,15.513-10.457,21.513c-6.971,6-17.285,8.999-30.941,8.999
				c-12.4,0-22.214-2.514-29.441-7.542C499.987,919.556,495.26,912.727,493.031,904.099z"/>
			<path display="inline" fill="#FFFFFF" d="M623.138,804.419v46.197c7.77-9.085,17.056-13.628,27.856-13.628
				c5.541,0,10.542,1.029,14.999,3.086c4.457,2.057,7.812,4.685,10.071,7.885c2.257,3.201,3.8,6.742,4.628,10.628
				c0.827,3.887,1.243,9.914,1.243,18.085v53.397H657.85v-48.083c0-9.542-0.459-15.599-1.371-18.17
				c-0.914-2.571-2.528-4.614-4.843-6.128c-2.314-1.513-5.215-2.271-8.7-2.271c-4,0-7.572,0.973-10.714,2.914
				c-3.143,1.943-5.443,4.873-6.9,8.785c-1.457,3.914-2.186,9.699-2.186,17.356v45.597h-24.084v-125.65H623.138z"/>
			<path display="inline" fill="#FFFFFF" d="M759.073,901.099l23.999,4.028c-3.086,8.799-7.958,15.501-14.613,20.099
				c-6.657,4.6-14.986,6.9-24.984,6.9c-15.828,0-27.543-5.171-35.141-15.513c-6-8.284-9-18.74-9-31.37
				c0-15.085,3.943-26.898,11.828-35.441c7.885-8.541,17.856-12.814,29.913-12.814c13.542,0,24.226,4.471,32.055,13.414
				c7.828,8.944,11.571,22.642,11.228,41.098h-60.339c0.171,7.144,2.113,12.699,5.828,16.67c3.714,3.973,8.342,5.957,13.885,5.957
				c3.771,0,6.943-1.029,9.514-3.086C755.816,908.984,757.758,905.671,759.073,901.099z M760.445,876.757
				c-0.171-6.971-1.971-12.269-5.4-15.899c-3.428-3.628-7.6-5.443-12.514-5.443c-5.258,0-9.599,1.916-13.028,5.743
				c-3.428,3.828-5.114,9.029-5.057,15.599H760.445z"/>
			<path display="inline" fill="#FFFFFF" d="M795.5,904.099l24.17-3.685c1.029,4.685,3.114,8.242,6.257,10.671
				c3.141,2.43,7.542,3.643,13.199,3.643c6.227,0,10.914-1.143,14.056-3.428c2.113-1.599,3.171-3.741,3.171-6.428
				c0-1.828-0.571-3.343-1.714-4.543c-1.2-1.143-3.887-2.198-8.057-3.171c-19.427-4.285-31.742-8.198-36.941-11.742
				c-7.2-4.914-10.799-11.742-10.799-20.485c0-7.885,3.114-14.513,9.342-19.885c6.227-5.37,15.885-8.057,28.97-8.057
				c12.456,0,21.713,2.029,27.77,6.085c6.055,4.058,10.228,10.058,12.514,17.999l-22.713,4.2c-0.973-3.543-2.816-6.257-5.528-8.142
				c-2.714-1.886-6.587-2.828-11.614-2.828c-6.342,0-10.885,0.887-13.628,2.657c-1.83,1.257-2.743,2.886-2.743,4.885
				c0,1.714,0.8,3.171,2.4,4.371c2.171,1.6,9.671,3.857,22.499,6.771c12.826,2.914,21.783,6.485,26.87,10.714
				c5.027,4.285,7.542,10.257,7.542,17.913c0,8.344-3.486,15.513-10.457,21.513c-6.972,6-17.285,8.999-30.941,8.999
				c-12.399,0-22.213-2.514-29.441-7.542C802.455,919.556,797.728,912.727,795.5,904.099z"/>
		</g>
		<g display="none">
			<path display="inline" fill="#FFFFFF" d="M782.705,191.493c-1.455,0.511-2.853,1.187-4.303,1.715
				c-11.913,4.338-22.204,11.554-32.567,18.575c-41.109,27.85-78.603,60.344-116.739,91.951
				c-49.724,41.212-96.419,85.871-144.092,129.403c-17.809,16.262-34.901,33.332-51.85,50.497
				c-5.932,6.008-11.984,10.441-20.617,10.784c-2.377,0.095-4.748,0.77-7.089,1.318c-33.236,7.784-57.677,26.272-70.734,58.441
				c-3.495,8.611-5.767,17.617-7.852,26.67c-3.507,15.231-5.719,30.765-11.056,45.568c-5.211,14.453-14.871,23.374-30.452,24.801
				c-5.338,0.489-9.366,2.475-12.284,6.874c0,2.069,0,4.138,0,6.208c1.735,3.268,4.058,5.801,7.692,7.121
				c36.078,13.104,72.998,19.69,111.466,14.72c45.569-5.888,77.621-30.794,98.865-70.601c5.999-11.242,9.88-23.41,12.751-35.836
				c0.878-3.798,2.508-6.863,5.314-9.68c43.377-43.551,84.047-89.633,125.6-134.882c19.913-21.685,38.559-44.536,57.715-66.914
				c29.414-34.362,57.044-70.158,84.278-106.238c12.265-16.249,23.496-33.358,30.179-52.919c0-3.104,0-6.208,0-9.311
				C800.734,189.581,794.358,187.398,782.705,191.493z M483.225,578.109c-3.805,13.273-8.564,26.109-15.614,38.028
				c-14.356,24.271-35.029,40.282-62.353,47.497c-30.339,8.011-60.374,4.859-91.015-2.402c19.195-15.39,23.082-37.262,28.208-58.71
				c3.136-13.12,6.207-26.299,10.636-39.08c9.753-28.143,30.595-43.045,58.815-49.065c12.609-2.69,12.614-2.669,21.642,6.48
				c15.739,15.951,31.386,31.995,47.3,47.77C483.863,571.62,484.352,574.176,483.225,578.109z M523.747,526.844
				c-8.349,8.696-16.753,17.339-25.023,26.11c-1.833,1.944-2.824,1.886-4.854,0.043c-16.94-15.377-32.342-32.296-48.723-48.226
				c-2.524-2.455-2.248-3.729,0.109-5.98c8.469-8.089,16.802-16.323,25.029-24.657c2.006-2.032,3.035-2.119,5.219-0.063
				c16.265,15.317,31.806,31.355,47.518,47.223c0.941,0.95,1.827,1.956,2.902,3.112
				C525.091,525.341,524.445,526.117,523.747,526.844z M774.122,229.617c-2.832,2.888-4.499,6.895-6.829,10.303
				c-33.803,49.445-71.945,95.499-111.083,140.706c-37.306,43.091-75.609,85.312-114.408,127.073
				c-0.704,0.758-1.307,1.608-1.685,2.078c-17.826-17.247-35.37-34.221-52.853-51.136c12.574-11.828,24.757-23.34,36.996-34.791
				c34.117-31.92,68.366-63.732,104.188-93.715c41.697-34.9,82.67-70.763,127.56-101.681c8.843-6.09,17.856-11.86,29.027-16.518
				C781.033,218.527,778.917,224.727,774.122,229.617z"/>
		</g>
	</g>
	<g id="_x32_D_Shapes" display="none">
		<g display="inline">
			<path fill="#FFFFFF" d="M188.541,907.937v21.966h-82.899c0.897-8.303,3.59-16.172,8.08-23.607
				c4.488-7.434,13.353-17.295,26.595-29.583c10.66-9.931,17.196-16.664,19.61-20.199c3.254-4.881,4.881-9.707,4.881-14.476
				c0-5.273-1.417-9.328-4.25-12.161c-2.834-2.832-6.748-4.25-11.741-4.25c-4.938,0-8.866,1.487-11.783,4.461
				c-2.918,2.975-4.602,7.911-5.05,14.812l-23.565-2.357c1.402-13.016,5.807-22.358,13.213-28.026
				c7.406-5.667,16.664-8.5,27.773-8.5c12.175,0,21.741,3.282,28.699,9.847c6.957,6.565,10.436,14.728,10.436,24.491
				c0,5.555-0.997,10.844-2.988,15.865c-1.993,5.022-5.149,10.282-9.468,15.78c-2.861,3.648-8.024,8.893-15.486,15.738
				c-7.463,6.847-12.19,11.391-14.181,13.634c-1.993,2.244-3.606,4.432-4.839,6.565H188.541z"/>
			<path fill="#FFFFFF" d="M209.666,806.523h45.531c10.268,0,18.095,0.787,23.481,2.357c7.238,2.134,13.437,5.921,18.6,11.362
				c5.161,5.443,9.089,12.107,11.783,19.988c2.693,7.883,4.04,17.604,4.04,29.162c0,10.156-1.262,18.908-3.787,26.258
				c-3.087,8.977-7.49,16.243-13.213,21.798c-4.321,4.208-10.156,7.49-17.506,9.847c-5.499,1.739-12.849,2.609-22.05,2.609h-46.878
				L209.666,806.523L209.666,806.523z M234.578,827.395v81.721h18.6c6.957,0,11.978-0.391,15.065-1.178
				c4.04-1.01,7.391-2.721,10.057-5.134c2.664-2.411,4.839-6.382,6.523-11.909c1.683-5.525,2.525-13.058,2.525-22.597
				c0-9.538-0.842-16.86-2.525-21.966c-1.683-5.104-4.04-9.089-7.07-11.951c-3.03-2.861-6.874-4.797-11.53-5.807
				c-3.479-0.786-10.296-1.178-20.451-1.178h-11.194V827.395z"/>
			<path fill="#FFFFFF" d="M375.801,889.758l24.239-2.357c1.458,8.136,4.418,14.111,8.879,17.926
				c4.461,3.817,10.478,5.723,18.053,5.723c8.023,0,14.068-1.696,18.137-5.092c4.067-3.395,6.102-7.364,6.102-11.909
				c0-2.916-0.856-5.399-2.567-7.448c-1.712-2.048-4.7-3.829-8.963-5.344c-2.918-1.01-9.567-2.805-19.946-5.386
				c-13.354-3.31-22.724-7.377-28.11-12.203c-7.575-6.788-11.362-15.065-11.362-24.828c0-6.283,1.781-12.161,5.344-17.632
				c3.562-5.471,8.696-9.637,15.402-12.498c6.704-2.862,14.798-4.292,24.281-4.292c15.486,0,27.142,3.396,34.969,10.184
				c7.827,6.789,11.936,15.852,12.33,27.184l-24.912,1.094c-1.067-6.34-3.353-10.899-6.859-13.676
				c-3.507-2.777-8.768-4.166-15.78-4.166c-7.238,0-12.905,1.487-17.001,4.461c-2.638,1.908-3.956,4.461-3.956,7.659
				c0,2.918,1.234,5.416,3.703,7.49c3.141,2.638,10.773,5.386,22.892,8.248s21.082,5.821,26.89,8.879
				c5.807,3.059,10.352,7.238,13.634,12.54s4.923,11.854,4.923,19.652c0,7.07-1.964,13.69-5.891,19.862
				c-3.928,6.173-9.483,10.76-16.664,13.76c-7.182,3-16.132,4.503-26.848,4.503c-15.599,0-27.578-3.605-35.937-10.815
				C382.421,914.069,377.427,903.561,375.801,889.758z"/>
			<path fill="#FFFFFF" d="M520.474,806.523v45.363c7.63-8.921,16.748-13.382,27.353-13.382c5.442,0,10.352,1.01,14.728,3.03
				s7.672,4.601,9.889,7.743c2.216,3.143,3.73,6.621,4.545,10.436c0.813,3.817,1.22,9.735,1.22,17.758v52.433H554.56v-47.215
				c0-9.37-0.45-15.317-1.347-17.842c-0.898-2.525-2.483-4.531-4.755-6.018c-2.272-1.485-5.121-2.23-8.542-2.23
				c-3.928,0-7.435,0.955-10.52,2.862c-3.087,1.908-5.344,4.785-6.775,8.627c-1.431,3.843-2.146,9.524-2.146,17.043v44.774h-23.649
				V806.523H520.474z"/>
			<path fill="#FFFFFF" d="M619.869,867.792l-21.461-3.871c2.411-8.639,6.565-15.035,12.456-19.189
				c5.891-4.152,14.644-6.228,26.258-6.228c10.548,0,18.402,1.25,23.565,3.745c5.162,2.497,8.795,5.668,10.899,9.51
				c2.104,3.843,3.156,10.899,3.156,21.167l-0.253,27.605c0,7.856,0.379,13.648,1.136,17.379c0.757,3.733,2.174,7.73,4.25,11.993
				H656.48c-0.619-1.57-1.376-3.899-2.272-6.985c-0.393-1.401-0.673-2.327-0.842-2.777c-4.04,3.928-8.361,6.873-12.961,8.837
				c-4.601,1.964-9.51,2.946-14.728,2.946c-9.203,0-16.454-2.495-21.756-7.49c-5.302-4.994-7.953-11.306-7.953-18.936
				c0-5.05,1.206-9.552,3.619-13.508c2.411-3.956,5.793-6.985,10.141-9.089c4.347-2.104,10.617-3.942,18.81-5.513
				c11.053-2.075,18.712-4.01,22.976-5.807v-2.357c0-4.545-1.124-7.785-3.366-9.721c-2.244-1.936-6.48-2.904-12.708-2.904
				c-4.208,0-7.49,0.829-9.847,2.483C623.236,860.737,621.328,863.64,619.869,867.792z M651.514,886.981
				c-3.03,1.01-7.827,2.218-14.392,3.619c-6.565,1.403-10.857,2.777-12.877,4.124c-3.086,2.188-4.629,4.966-4.629,8.332
				c0,3.312,1.233,6.173,3.703,8.584c2.469,2.413,5.609,3.619,9.426,3.619c4.263,0,8.332-1.401,12.203-4.208
				c2.862-2.132,4.741-4.741,5.639-7.827c0.617-2.02,0.926-5.862,0.926-11.53v-4.713H651.514z"/>
			<path fill="#FFFFFF" d="M697.382,840.524h22.05v13.129c2.861-4.489,6.733-8.134,11.614-10.941
				c4.881-2.805,10.296-4.208,16.243-4.208c10.38,0,19.189,4.069,26.427,12.203c7.238,8.136,10.857,19.471,10.857,34.001
				c0,14.926-3.648,26.525-10.941,34.801c-7.294,8.277-16.131,12.414-26.511,12.414c-4.938,0-9.413-0.982-13.424-2.946
				c-4.012-1.964-8.235-5.33-12.666-10.099v45.026h-23.649V840.524z M720.779,883.699c0,10.045,1.99,17.464,5.975,22.261
				c3.984,4.797,8.837,7.196,14.56,7.196c5.499,0,10.07-2.201,13.718-6.607c3.647-4.404,5.471-11.627,5.471-21.672
				c0-9.37-1.881-16.327-5.639-20.872c-3.759-4.545-8.416-6.817-13.971-6.817c-5.779,0-10.576,2.23-14.392,6.691
				C722.685,868.339,720.779,874.946,720.779,883.699z"/>
			<path fill="#FFFFFF" d="M855.101,901.457l23.565,3.956c-3.03,8.641-7.814,15.221-14.35,19.736
				c-6.537,4.517-14.716,6.775-24.533,6.775c-15.542,0-27.045-5.078-34.506-15.233c-5.891-8.134-8.837-18.402-8.837-30.803
				c0-14.812,3.871-26.413,11.614-34.801c7.743-8.387,17.534-12.582,29.372-12.582c13.297,0,23.788,4.39,31.476,13.171
				c7.687,8.782,11.362,22.233,11.025,40.355h-59.25c0.168,7.015,2.075,12.47,5.723,16.369c3.647,3.901,8.192,5.849,13.634,5.849
				c3.703,0,6.817-1.01,9.342-3.03C851.903,909.2,853.809,905.947,855.101,901.457z M856.448,877.555
				c-0.168-6.845-1.936-12.048-5.302-15.612c-3.366-3.563-7.462-5.344-12.288-5.344c-5.163,0-9.426,1.881-12.793,5.639
				c-3.367,3.759-5.022,8.866-4.966,15.317H856.448z"/>
			<path fill="#FFFFFF" d="M890.87,904.403l23.734-3.619c1.01,4.601,3.058,8.094,6.144,10.478c3.085,2.386,7.406,3.577,12.961,3.577
				c6.114,0,10.717-1.122,13.803-3.366c2.075-1.57,3.114-3.674,3.114-6.312c0-1.795-0.561-3.282-1.683-4.461
				c-1.178-1.122-3.817-2.159-7.911-3.114c-19.077-4.208-31.169-8.05-36.274-11.53c-7.07-4.825-10.604-11.53-10.604-20.115
				c0-7.743,3.058-14.251,9.174-19.526c6.114-5.273,15.598-7.911,28.447-7.911c12.231,0,21.321,1.992,27.268,5.975
				c5.946,3.985,10.043,9.876,12.288,17.674l-22.303,4.124c-0.955-3.479-2.765-6.144-5.428-7.995
				c-2.665-1.852-6.468-2.777-11.404-2.777c-6.228,0-10.689,0.871-13.382,2.609c-1.797,1.234-2.693,2.833-2.693,4.797
				c0,1.683,0.785,3.114,2.357,4.292c2.132,1.571,9.496,3.787,22.092,6.649c12.595,2.862,21.39,6.368,26.385,10.52
				c4.936,4.208,7.406,10.071,7.406,17.59c0,8.193-3.423,15.233-10.268,21.125c-6.847,5.891-16.973,8.837-30.382,8.837
				c-12.175,0-21.812-2.469-28.909-7.406C897.699,919.581,893.058,912.875,890.87,904.403z"/>
		</g>
		<g display="inline">
			
				<rect x="528.923" y="189.546" fill="#453558" stroke="#FFFFFF" stroke-width="27" stroke-miterlimit="10" width="324.23" height="324.23"/>
			<circle fill="#453558" stroke="#FFFFFF" stroke-width="27" stroke-miterlimit="10" cx="396.549" cy="418.531" r="169.701"/>
			<polygon fill="#453558" stroke="#FFFFFF" stroke-width="27" stroke-miterlimit="10" points="556.702,687.795 368.482,687.796 
				462.592,524.793 556.701,361.79 650.811,524.793 744.921,687.795 			"/>
		</g>
	</g>
	<g id="_x33_D_Shapes">
		<g>
			<path fill="#FFFFFF" d="M106.392,897.175l22.91-2.78c0.729,5.841,2.695,10.306,5.896,13.393c3.2,3.089,7.075,4.633,11.623,4.633
				c4.886,0,8.998-1.854,12.34-5.559c3.34-3.707,5.012-8.704,5.012-14.993c0-5.951-1.601-10.668-4.802-14.15
				c-3.2-3.481-7.104-5.222-11.707-5.222c-3.032,0-6.654,0.589-10.865,1.769l2.61-19.288c6.401,0.168,11.287-1.222,14.656-4.17
				s5.054-6.864,5.054-11.75c0-4.154-1.236-7.467-3.706-9.938c-2.472-2.471-5.757-3.706-9.854-3.706
				c-4.043,0-7.497,1.404-10.36,4.211c-2.864,2.809-4.605,6.907-5.223,12.298l-21.815-3.706c1.517-7.468,3.804-13.435,6.865-17.898
				c3.06-4.465,7.328-7.973,12.803-10.529c5.475-2.554,11.609-3.832,18.404-3.832c11.623,0,20.943,3.706,27.963,11.118
				c5.783,6.064,8.676,12.916,8.676,20.552c0,10.838-5.925,19.485-17.771,25.942c7.074,1.517,12.731,4.914,16.972,10.191
				c4.239,5.279,6.359,11.652,6.359,19.12c0,10.838-3.959,20.075-11.876,27.711c-7.918,7.638-17.772,11.455-29.564,11.455
				c-11.175,0-20.44-3.214-27.796-9.644C111.838,915.972,107.571,907.564,106.392,897.175z"/>
			<path fill="#FFFFFF" d="M208.309,806.462h45.567c10.276,0,18.109,0.786,23.5,2.357c7.244,2.135,13.447,5.926,18.614,11.371
				c5.166,5.447,9.097,12.116,11.792,20.005c2.695,7.89,4.043,17.618,4.043,29.185c0,10.164-1.264,18.924-3.79,26.279
				c-3.089,8.985-7.496,16.256-13.224,21.815c-4.325,4.212-10.164,7.496-17.52,9.854c-5.504,1.741-12.859,2.611-22.068,2.611
				h-46.915L208.309,806.462L208.309,806.462z M233.24,827.35v81.785h18.614c6.962,0,11.988-0.392,15.077-1.179
				c4.043-1.011,7.397-2.724,10.065-5.138c2.666-2.414,4.843-6.388,6.527-11.919c1.685-5.53,2.527-13.068,2.527-22.615
				c0-9.546-0.843-16.873-2.527-21.983c-1.685-5.109-4.043-9.097-7.075-11.961c-3.032-2.863-6.879-4.801-11.539-5.812
				c-3.482-0.786-10.305-1.179-20.468-1.179L233.24,827.35L233.24,827.35z"/>
			<path fill="#FFFFFF" d="M374.575,889.763l24.258-2.358c1.46,8.143,4.423,14.122,8.887,17.94
				c4.464,3.819,10.486,5.728,18.066,5.728c8.03,0,14.08-1.697,18.151-5.096c4.071-3.396,6.106-7.37,6.106-11.918
				c0-2.92-0.856-5.404-2.568-7.455c-1.714-2.049-4.704-3.832-8.971-5.348c-2.92-1.012-9.574-2.808-19.962-5.391
				c-13.364-3.313-22.741-7.384-28.132-12.214c-7.581-6.793-11.371-15.077-11.371-24.847c0-6.289,1.781-12.172,5.349-17.646
				c3.564-5.475,8.703-9.645,15.413-12.508s14.811-4.296,24.301-4.296c15.498,0,27.163,3.398,34.996,10.192
				c7.834,6.794,11.946,15.863,12.34,27.205l-24.932,1.096c-1.067-6.346-3.356-10.908-6.864-13.688
				c-3.511-2.779-8.774-4.17-15.793-4.17c-7.244,0-12.916,1.489-17.015,4.465c-2.64,1.909-3.959,4.464-3.959,7.664
				c0,2.921,1.235,5.42,3.707,7.497c3.144,2.64,10.781,5.391,22.91,8.254c12.129,2.864,21.099,5.826,26.91,8.887
				c5.813,3.061,10.36,7.243,13.646,12.55s4.927,11.863,4.927,19.667c0,7.075-1.966,13.702-5.896,19.878
				c-3.931,6.178-9.49,10.769-16.677,13.771c-7.188,3.003-16.145,4.506-26.869,4.506c-15.611,0-27.6-3.606-35.966-10.823
				C381.201,914.092,376.204,903.577,374.575,889.763z"/>
			<path fill="#FFFFFF" d="M519.364,806.462v45.398c7.636-8.928,16.761-13.393,27.374-13.393c5.446,0,10.36,1.012,14.74,3.033
				s7.678,4.604,9.896,7.748c2.218,3.146,3.733,6.627,4.549,10.445c0.813,3.818,1.221,9.742,1.221,17.771v52.475h-23.668v-47.252
				c0-9.377-0.45-15.33-1.348-17.856c-0.898-2.527-2.484-4.534-4.759-6.022c-2.274-1.487-5.125-2.232-8.55-2.232
				c-3.931,0-7.44,0.956-10.528,2.864c-3.089,1.909-5.349,4.788-6.78,8.633c-1.432,3.848-2.147,9.532-2.147,17.057v44.81h-23.669
				V806.462H519.364z"/>
			<path fill="#FFFFFF" d="M618.838,867.78l-21.478-3.875c2.413-8.646,6.569-15.048,12.465-19.204
				c5.896-4.155,14.656-6.233,26.279-6.233c10.557,0,18.418,1.251,23.584,3.749c5.166,2.499,8.803,5.672,10.908,9.518
				c2.105,3.847,3.158,10.907,3.158,21.184l-0.252,27.627c0,7.862,0.379,13.659,1.137,17.393c0.758,3.735,2.176,7.736,4.254,12.003
				h-23.416c-0.618-1.571-1.377-3.902-2.274-6.991c-0.394-1.402-0.674-2.329-0.842-2.779c-4.043,3.931-8.368,6.879-12.972,8.844
				c-4.604,1.965-9.518,2.948-14.74,2.948c-9.209,0-16.466-2.498-21.772-7.496c-5.307-4.997-7.96-11.314-7.96-18.951
				c0-5.055,1.207-9.561,3.622-13.52c2.414-3.958,5.797-6.99,10.149-9.097c4.351-2.105,10.626-3.944,18.825-5.517
				c11.062-2.077,18.727-4.014,22.994-5.812v-2.358c0-4.549-1.124-7.791-3.369-9.729c-2.246-1.938-6.485-2.906-12.718-2.906
				c-4.212,0-7.497,0.829-9.855,2.485S620.298,863.625,618.838,867.78z M650.508,886.983c-3.032,1.012-7.833,2.22-14.403,3.622
				c-6.569,1.404-10.865,2.78-12.887,4.128c-3.089,2.189-4.633,4.969-4.633,8.338c0,3.314,1.235,6.178,3.707,8.592
				c2.47,2.415,5.614,3.621,9.434,3.621c4.267,0,8.338-1.402,12.213-4.211c2.863-2.134,4.744-4.744,5.643-7.833
				c0.618-2.021,0.927-5.867,0.927-11.54L650.508,886.983L650.508,886.983z"/>
			<path fill="#FFFFFF" d="M696.413,840.489h22.067v13.141c2.864-4.492,6.738-8.142,11.624-10.95
				c4.885-2.808,10.304-4.212,16.256-4.212c10.388,0,19.204,4.072,26.448,12.214c7.243,8.143,10.865,19.485,10.865,34.028
				c0,14.938-3.651,26.546-10.95,34.828c-7.3,8.283-16.144,12.424-26.532,12.424c-4.941,0-9.42-0.983-13.434-2.948
				c-4.016-1.965-8.241-5.334-12.677-10.107v45.063h-23.668V840.489H696.413z M719.828,883.699c0,10.052,1.993,17.478,5.98,22.278
				c3.986,4.801,8.844,7.201,14.571,7.201c5.503,0,10.079-2.203,13.729-6.611c3.649-4.408,5.475-11.637,5.475-21.689
				c0-9.377-1.882-16.34-5.643-20.889c-3.763-4.548-8.424-6.822-13.982-6.822c-5.784,0-10.585,2.232-14.403,6.696
				C721.736,868.327,719.828,874.939,719.828,883.699z"/>
			<path fill="#FFFFFF" d="M854.256,901.471l23.584,3.958c-3.031,8.648-7.819,15.232-14.36,19.752
				c-6.542,4.521-14.727,6.78-24.553,6.78c-15.555,0-27.066-5.081-34.534-15.245c-5.896-8.142-8.844-18.417-8.844-30.828
				c0-14.824,3.875-26.433,11.624-34.828c7.749-8.394,17.547-12.593,29.396-12.593c13.309,0,23.808,4.395,31.502,13.183
				c7.692,8.788,11.37,22.25,11.033,40.388h-59.297c0.169,7.02,2.077,12.479,5.728,16.382c3.649,3.903,8.198,5.854,13.646,5.854
				c3.706,0,6.822-1.012,9.35-3.033C851.056,909.219,852.964,905.964,854.256,901.471z M855.604,877.549
				c-0.168-6.85-1.937-12.058-5.306-15.624c-3.369-3.565-7.469-5.349-12.298-5.349c-5.167,0-9.434,1.882-12.803,5.644
				c-3.369,3.763-5.025,8.873-4.969,15.329L855.604,877.549L855.604,877.549z"/>
			<path fill="#FFFFFF" d="M890.054,904.419l23.752-3.621c1.012,4.604,3.061,8.1,6.149,10.486c3.087,2.387,7.412,3.579,12.971,3.579
				c6.12,0,10.725-1.122,13.813-3.369c2.077-1.571,3.117-3.677,3.117-6.317c0-1.796-0.563-3.284-1.686-4.464
				c-1.179-1.122-3.818-2.161-7.917-3.116c-19.092-4.211-31.193-8.057-36.303-11.539c-7.075-4.829-10.612-11.539-10.612-20.131
				c0-7.749,3.06-14.263,9.181-19.541c6.12-5.277,15.61-7.918,28.47-7.918c12.24,0,21.337,1.994,27.289,5.98
				c5.952,3.988,10.052,9.884,12.298,17.688l-22.32,4.127c-0.956-3.481-2.767-6.148-5.433-8.002
				c-2.668-1.853-6.473-2.779-11.413-2.779c-6.233,0-10.697,0.871-13.393,2.611c-1.798,1.235-2.695,2.836-2.695,4.801
				c0,1.685,0.786,3.116,2.358,4.296c2.134,1.572,9.503,3.79,22.11,6.654c12.604,2.863,21.407,6.373,26.405,10.528
				c4.94,4.211,7.412,10.079,7.412,17.604c0,8.199-3.426,15.245-10.275,21.142c-6.852,5.896-16.987,8.844-30.407,8.844
				c-12.186,0-21.829-2.471-28.933-7.412C896.89,919.609,892.243,912.898,890.054,904.419z"/>
		</g>
		<g>
			<path fill="#FFFFFF" d="M759.964,543.885c-0.231-75.412-0.203-150.825-0.028-226.238c0.02-8.577-3.046-14.195-10.572-18.472
				c-66.518-37.802-132.911-75.826-199.34-113.784c-2.052-1.173-4.105-2.346-6.157-3.519c-2.595,0-5.19,0-7.785,0
				c-68.624,39.227-137.219,78.504-205.915,117.604c-6.974,3.969-10.143,9.174-10.13,17.215
				c0.129,76.218,0.124,152.436,0.005,228.655c-0.012,7.804,2.919,13.083,9.738,16.965c66.63,37.923,133.18,75.987,199.752,114.014
				c2.191,1.252,4.367,2.532,6.549,3.799c2.595,0,5.19,0,7.785,0c68.199-38.956,136.356-77.986,204.653-116.768
				C756.462,558.845,759.992,553.146,759.964,543.885z M525.37,638.055c0,0.484-0.061,0.968-0.096,1.505
				c-1.661,0.478-2.681-0.826-3.836-1.485c-56.167-32.045-112.308-64.135-168.46-96.205c-2.113-1.207-3.786-2.129-3.778-5.336
				c0.144-64.999,0.109-129.999,0.114-194.998c0-0.595,0.069-1.191,0.149-2.478c4.212,2.336,7.989,4.376,11.714,6.505
				c53.479,30.565,106.944,61.153,160.445,91.679c2.394,1.366,3.85,2.608,3.844,5.815
				C525.346,508.056,525.375,573.056,525.37,638.055z M536.551,412.327c-56.536-32.446-113.143-64.769-169.733-97.121
				c-0.696-0.398-1.362-0.848-2.456-1.534c14.005-8.015,27.707-15.868,41.419-23.702c43.393-24.794,86.798-49.566,130.161-74.412
				c2.549-1.461,4.505-2.153,7.456-0.46c56.529,32.458,113.136,64.781,169.724,97.137c0.694,0.397,1.36,0.845,2.544,1.584
				c-26.883,15.348-53.152,30.338-79.414,45.342c-30.761,17.575-61.531,35.136-92.245,52.793
				C541.417,413.443,539.448,413.99,536.551,412.327z M726.586,542.179c-55.799,31.744-111.523,63.62-167.263,95.468
				c-1.368,0.782-2.736,1.564-4.753,2.717c0-48.645,0-96.464,0-144.283c0-17.67,0.047-35.34-0.052-53.009
				c-0.014-2.524,0.598-3.984,2.958-5.328c56.478-32.16,112.893-64.43,169.337-96.649c1.05-0.599,1.971-1.733,3.827-1.282
				c0,1.512,0,3.074,0,4.637c0,63.547-0.036,127.093,0.094,190.639C730.741,538.655,729.646,540.438,726.586,542.179z"/>
		</g>
	</g>
</g>
</svg>
