<?xml version="1.0" encoding="utf-8"?>
<!-- Generator: Adobe Illustrator 23.0.3, SVG Export Plug-In . SVG Version: 6.00 Build 0)  -->
<svg version="1.1" id="Layer_1" xmlns="http://www.w3.org/2000/svg" xmlns:xlink="http://www.w3.org/1999/xlink" x="0px" y="0px"
	 viewBox="0 0 1080 1080" style="enable-background:new 0 0 1080 1080;" xml:space="preserve">
<style type="text/css">
	.st0{fill:#1F1F1F;stroke:#1F1F1F;stroke-width:61.1968;stroke-miterlimit:10;}
	.st1{fill:#453558;stroke:#BB86FC;stroke-width:61.1968;stroke-miterlimit:10;}
	.st2{display:none;}
	.st3{display:inline;fill:#424242;}
	.st4{display:inline;fill:#453558;}
	.st5{display:inline;fill:#BB86FC;}
	.st6{display:inline;fill:#FFFFFF;}
	.st7{display:inline;}
	.st8{fill:#FFFFFF;}
	.st9{fill:#453558;stroke:#FFFFFF;stroke-width:27;stroke-miterlimit:10;}
</style>
<g id="Background">
	<rect x="24.6" y="24.6" class="st0" width="1030.9" height="1030.9"/>
	<rect x="24.6" y="24.6" class="st1" width="1030.9" height="1030.9"/>
	<text transform="matrix(1 0 0 1 1252.4135 1136.3682)" style="fill:#1D1D1B; font-family:'Arial-BoldMT'; font-size:172.5px;">Upload</text>
	<g id="Color_pallete" class="st2">
		<rect x="-210.8" y="130.7" class="st3" width="84.6" height="84.6"/>
		<rect x="-210.8" y="227.4" class="st4" width="84.6" height="84.6"/>
		<rect x="-210.8" y="324" class="st5" width="84.6" height="84.6"/>
	</g>
</g>
<g id="Button">
	<g id="Brushes">
		<g class="st2">
			<path class="st6" d="M199.5,804.4h50.2c9.9,0,17.4,0.4,22.2,1.2c4.9,0.8,9.3,2.6,13.1,5.2c3.9,2.6,7.1,6.1,9.6,10.5
				c2.6,4.4,3.9,9.3,3.9,14.7c0,5.9-1.6,11.3-4.8,16.2c-3.2,4.9-7.5,8.6-12.9,11.1c7.7,2.2,13.5,6,17.7,11.4
				c4.1,5.4,6.2,11.7,6.2,18.9c0,5.7-1.3,11.3-4,16.7c-2.7,5.4-6.3,9.7-10.9,12.9c-4.6,3.2-10.3,5.2-17,6
				c-4.2,0.5-14.4,0.7-30.6,0.9h-42.8L199.5,804.4L199.5,804.4L199.5,804.4z M224.8,825.3v29.1h16.6c9.9,0,16-0.1,18.4-0.4
				c4.3-0.5,7.8-2,10.2-4.5c2.5-2.5,3.7-5.8,3.7-9.8c0-3.9-1.1-7-3.2-9.5c-2.1-2.4-5.3-3.9-9.6-4.4c-2.5-0.3-9.7-0.4-21.7-0.4
				L224.8,825.3L224.8,825.3L224.8,825.3z M224.8,875.3v33.6h23.5c9.1,0,14.9-0.3,17.4-0.8c3.8-0.7,6.8-2.4,9.2-5
				c2.4-2.7,3.6-6.2,3.6-10.7c0-3.8-0.9-7-2.7-9.6c-1.8-2.6-4.5-4.5-7.9-5.7c-3.5-1.2-11-1.8-22.5-1.8L224.8,875.3L224.8,875.3
				L224.8,875.3z"/>
			<path class="st6" d="M349,930.1H325v-91h22.4V852c3.8-6.1,7.3-10.1,10.3-12.1c3.1-1.9,6.5-2.9,10.4-2.9c5.5,0,10.8,1.5,15.9,4.5
				l-7.5,21c-4.1-2.6-7.8-3.9-11.3-3.9c-3.4,0-6.2,0.9-8.6,2.8c-2.3,1.9-4.2,5.2-5.5,10.1c-1.3,4.9-2,15-2,30.5L349,930.1L349,930.1
				z"/>
			<path class="st6" d="M454.2,930.1v-13.6c-3.3,4.9-7.7,8.7-13.1,11.5c-5.4,2.8-11.1,4.2-17.1,4.2c-6.1,0-11.6-1.3-16.5-4
				c-4.9-2.7-8.4-6.5-10.5-11.3c-2.2-4.9-3.3-11.6-3.3-20.1V839h24.1v41.8c0,12.8,0.4,20.6,1.3,23.5c0.9,2.9,2.5,5.2,4.8,6.9
				c2.3,1.7,5.3,2.5,8.9,2.5c4.1,0,7.8-1.1,11.1-3.4c3.3-2.3,5.5-5.1,6.7-8.4s1.8-11.5,1.8-24.6V839h24.1v91L454.2,930.1
				L454.2,930.1L454.2,930.1z"/>
			<path class="st6" d="M493,904.1l24.2-3.7c1,4.7,3.1,8.2,6.3,10.7c3.1,2.4,7.5,3.6,13.2,3.6c6.2,0,10.9-1.1,14.1-3.4
				c2.1-1.6,3.2-3.7,3.2-6.4c0-1.8-0.6-3.3-1.7-4.5c-1.2-1.1-3.9-2.2-8.1-3.2c-19.4-4.3-31.7-8.2-36.9-11.7
				c-7.2-4.9-10.8-11.7-10.8-20.5c0-7.9,3.1-14.5,9.3-19.9c6.2-5.4,15.9-8.1,29-8.1c12.5,0,21.7,2,27.8,6.1
				c6.1,4.1,10.2,10.1,12.5,18l-22.7,4.2c-1-3.5-2.8-6.3-5.5-8.1c-2.7-1.9-6.6-2.8-11.6-2.8c-6.3,0-10.9,0.9-13.6,2.7
				c-1.8,1.3-2.7,2.9-2.7,4.9c0,1.7,0.8,3.2,2.4,4.4c2.2,1.6,9.7,3.9,22.5,6.8c12.8,2.9,21.8,6.5,26.9,10.7c5,4.3,7.5,10.3,7.5,17.9
				c0,8.3-3.5,15.5-10.5,21.5c-7,6-17.3,9-30.9,9c-12.4,0-22.2-2.5-29.4-7.5C500,919.6,495.3,912.7,493,904.1z"/>
			<path class="st6" d="M623.1,804.4v46.2c7.8-9.1,17.1-13.6,27.9-13.6c5.5,0,10.5,1,15,3.1c4.5,2.1,7.8,4.7,10.1,7.9
				c2.3,3.2,3.8,6.7,4.6,10.6c0.8,3.9,1.2,9.9,1.2,18.1v53.4h-24.1V882c0-9.5-0.5-15.6-1.4-18.2c-0.9-2.6-2.5-4.6-4.8-6.1
				c-2.3-1.5-5.2-2.3-8.7-2.3c-4,0-7.6,1-10.7,2.9c-3.1,1.9-5.4,4.9-6.9,8.8c-1.5,3.9-2.2,9.7-2.2,17.4v45.6h-24.1V804.4H623.1z"/>
			<path class="st6" d="M759.1,901.1l24,4c-3.1,8.8-8,15.5-14.6,20.1c-6.7,4.6-15,6.9-25,6.9c-15.8,0-27.5-5.2-35.1-15.5
				c-6-8.3-9-18.7-9-31.4c0-15.1,3.9-26.9,11.8-35.4c7.9-8.5,17.9-12.8,29.9-12.8c13.5,0,24.2,4.5,32.1,13.4
				c7.8,8.9,11.6,22.6,11.2,41.1H724c0.2,7.1,2.1,12.7,5.8,16.7c3.7,4,8.3,6,13.9,6c3.8,0,6.9-1,9.5-3.1
				C755.8,909,757.8,905.7,759.1,901.1z M760.4,876.8c-0.2-7-2-12.3-5.4-15.9c-3.4-3.6-7.6-5.4-12.5-5.4c-5.3,0-9.6,1.9-13,5.7
				c-3.4,3.8-5.1,9-5.1,15.6H760.4z"/>
			<path class="st6" d="M795.5,904.1l24.2-3.7c1,4.7,3.1,8.2,6.3,10.7c3.1,2.4,7.5,3.6,13.2,3.6c6.2,0,10.9-1.1,14.1-3.4
				c2.1-1.6,3.2-3.7,3.2-6.4c0-1.8-0.6-3.3-1.7-4.5c-1.2-1.1-3.9-2.2-8.1-3.2c-19.4-4.3-31.7-8.2-36.9-11.7
				c-7.2-4.9-10.8-11.7-10.8-20.5c0-7.9,3.1-14.5,9.3-19.9c6.2-5.4,15.9-8.1,29-8.1c12.5,0,21.7,2,27.8,6.1
				c6.1,4.1,10.2,10.1,12.5,18l-22.7,4.2c-1-3.5-2.8-6.3-5.5-8.1c-2.7-1.9-6.6-2.8-11.6-2.8c-6.3,0-10.9,0.9-13.6,2.7
				c-1.8,1.3-2.7,2.9-2.7,4.9c0,1.7,0.8,3.2,2.4,4.4c2.2,1.6,9.7,3.9,22.5,6.8c12.8,2.9,21.8,6.5,26.9,10.7c5,4.3,7.5,10.3,7.5,17.9
				c0,8.3-3.5,15.5-10.5,21.5c-7,6-17.3,9-30.9,9c-12.4,0-22.2-2.5-29.4-7.5C802.5,919.6,797.7,912.7,795.5,904.1z"/>
		</g>
		<g class="st2">
			<path class="st6" d="M782.7,191.5c-1.5,0.5-2.9,1.2-4.3,1.7c-11.9,4.3-22.2,11.6-32.6,18.6c-41.1,27.9-78.6,60.3-116.7,92
				c-49.7,41.2-96.4,85.9-144.1,129.4c-17.8,16.3-34.9,33.3-51.9,50.5c-5.9,6-12,10.4-20.6,10.8c-2.4,0.1-4.7,0.8-7.1,1.3
				c-33.2,7.8-57.7,26.3-70.7,58.4c-3.5,8.6-5.8,17.6-7.9,26.7c-3.5,15.2-5.7,30.8-11.1,45.6c-5.2,14.5-14.9,23.4-30.5,24.8
				c-5.3,0.5-9.4,2.5-12.3,6.9c0,2.1,0,4.1,0,6.2c1.7,3.3,4.1,5.8,7.7,7.1c36.1,13.1,73,19.7,111.5,14.7
				c45.6-5.9,77.6-30.8,98.9-70.6c6-11.2,9.9-23.4,12.8-35.8c0.9-3.8,2.5-6.9,5.3-9.7c43.4-43.6,84-89.6,125.6-134.9
				c19.9-21.7,38.6-44.5,57.7-66.9c29.4-34.4,57-70.2,84.3-106.2c12.3-16.2,23.5-33.4,30.2-52.9c0-3.1,0-6.2,0-9.3
				C800.7,189.6,794.4,187.4,782.7,191.5z M483.2,578.1c-3.8,13.3-8.6,26.1-15.6,38c-14.4,24.3-35,40.3-62.4,47.5
				c-30.3,8-60.4,4.9-91-2.4c19.2-15.4,23.1-37.3,28.2-58.7c3.1-13.1,6.2-26.3,10.6-39.1c9.8-28.1,30.6-43,58.8-49.1
				c12.6-2.7,12.6-2.7,21.6,6.5c15.7,16,31.4,32,47.3,47.8C483.9,571.6,484.4,574.2,483.2,578.1z M523.7,526.8
				c-8.3,8.7-16.8,17.3-25,26.1c-1.8,1.9-2.8,1.9-4.9,0c-16.9-15.4-32.3-32.3-48.7-48.2c-2.5-2.5-2.2-3.7,0.1-6
				c8.5-8.1,16.8-16.3,25-24.7c2-2,3-2.1,5.2-0.1c16.3,15.3,31.8,31.4,47.5,47.2c0.9,1,1.8,2,2.9,3.1
				C525.1,525.3,524.4,526.1,523.7,526.8z M774.1,229.6c-2.8,2.9-4.5,6.9-6.8,10.3c-33.8,49.4-71.9,95.5-111.1,140.7
				c-37.3,43.1-75.6,85.3-114.4,127.1c-0.7,0.8-1.3,1.6-1.7,2.1c-17.8-17.2-35.4-34.2-52.9-51.1c12.6-11.8,24.8-23.3,37-34.8
				c34.1-31.9,68.4-63.7,104.2-93.7c41.7-34.9,82.7-70.8,127.6-101.7c8.8-6.1,17.9-11.9,29-16.5C781,218.5,778.9,224.7,774.1,229.6z
				"/>
		</g>
	</g>
	<g id="_x32_D_Shapes" class="st2">
		<g class="st7">
			<path class="st8" d="M188.5,907.9v22h-82.9c0.9-8.3,3.6-16.2,8.1-23.6c4.5-7.4,13.4-17.3,26.6-29.6c10.7-9.9,17.2-16.7,19.6-20.2
				c3.3-4.9,4.9-9.7,4.9-14.5c0-5.3-1.4-9.3-4.3-12.2c-2.8-2.8-6.7-4.3-11.7-4.3c-4.9,0-8.9,1.5-11.8,4.5c-2.9,3-4.6,7.9-5.1,14.8
				l-23.6-2.4c1.4-13,5.8-22.4,13.2-28c7.4-5.7,16.7-8.5,27.8-8.5c12.2,0,21.7,3.3,28.7,9.8c7,6.6,10.4,14.7,10.4,24.5
				c0,5.6-1,10.8-3,15.9c-2,5-5.1,10.3-9.5,15.8c-2.9,3.6-8,8.9-15.5,15.7c-7.5,6.8-12.2,11.4-14.2,13.6c-2,2.2-3.6,4.4-4.8,6.6
				H188.5z"/>
			<path class="st8" d="M209.7,806.5h45.5c10.3,0,18.1,0.8,23.5,2.4c7.2,2.1,13.4,5.9,18.6,11.4c5.2,5.4,9.1,12.1,11.8,20
				c2.7,7.9,4,17.6,4,29.2c0,10.2-1.3,18.9-3.8,26.3c-3.1,9-7.5,16.2-13.2,21.8c-4.3,4.2-10.2,7.5-17.5,9.8
				c-5.5,1.7-12.8,2.6-22,2.6h-46.9L209.7,806.5L209.7,806.5z M234.6,827.4v81.7h18.6c7,0,12-0.4,15.1-1.2c4-1,7.4-2.7,10.1-5.1
				c2.7-2.4,4.8-6.4,6.5-11.9c1.7-5.5,2.5-13.1,2.5-22.6c0-9.5-0.8-16.9-2.5-22c-1.7-5.1-4-9.1-7.1-12c-3-2.9-6.9-4.8-11.5-5.8
				c-3.5-0.8-10.3-1.2-20.5-1.2L234.6,827.4L234.6,827.4L234.6,827.4z"/>
			<path class="st8" d="M375.8,889.8l24.2-2.4c1.5,8.1,4.4,14.1,8.9,17.9c4.5,3.8,10.5,5.7,18.1,5.7c8,0,14.1-1.7,18.1-5.1
				c4.1-3.4,6.1-7.4,6.1-11.9c0-2.9-0.9-5.4-2.6-7.4c-1.7-2-4.7-3.8-9-5.3c-2.9-1-9.6-2.8-19.9-5.4c-13.4-3.3-22.7-7.4-28.1-12.2
				c-7.6-6.8-11.4-15.1-11.4-24.8c0-6.3,1.8-12.2,5.3-17.6c3.6-5.5,8.7-9.6,15.4-12.5c6.7-2.9,14.8-4.3,24.3-4.3
				c15.5,0,27.1,3.4,35,10.2c7.8,6.8,11.9,15.9,12.3,27.2l-24.9,1.1c-1.1-6.3-3.4-10.9-6.9-13.7c-3.5-2.8-8.8-4.2-15.8-4.2
				c-7.2,0-12.9,1.5-17,4.5c-2.6,1.9-4,4.5-4,7.7c0,2.9,1.2,5.4,3.7,7.5c3.1,2.6,10.8,5.4,22.9,8.2s21.1,5.8,26.9,8.9
				c5.8,3.1,10.4,7.2,13.6,12.5s4.9,11.9,4.9,19.7c0,7.1-2,13.7-5.9,19.9c-3.9,6.2-9.5,10.8-16.7,13.8c-7.2,3-16.1,4.5-26.8,4.5
				c-15.6,0-27.6-3.6-35.9-10.8C382.4,914.1,377.4,903.6,375.8,889.8z"/>
			<path class="st8" d="M520.5,806.5v45.4c7.6-8.9,16.7-13.4,27.4-13.4c5.4,0,10.4,1,14.7,3s7.7,4.6,9.9,7.7
				c2.2,3.1,3.7,6.6,4.5,10.4c0.8,3.8,1.2,9.7,1.2,17.8v52.4h-23.6v-47.2c0-9.4-0.5-15.3-1.3-17.8c-0.9-2.5-2.5-4.5-4.8-6
				c-2.3-1.5-5.1-2.2-8.5-2.2c-3.9,0-7.4,1-10.5,2.9c-3.1,1.9-5.3,4.8-6.8,8.6c-1.4,3.8-2.1,9.5-2.1,17v44.8h-23.6V806.5H520.5z"/>
			<path class="st8" d="M619.9,867.8l-21.5-3.9c2.4-8.6,6.6-15,12.5-19.2c5.9-4.2,14.6-6.2,26.3-6.2c10.5,0,18.4,1.3,23.6,3.7
				c5.2,2.5,8.8,5.7,10.9,9.5c2.1,3.8,3.2,10.9,3.2,21.2l-0.3,27.6c0,7.9,0.4,13.6,1.1,17.4c0.8,3.7,2.2,7.7,4.3,12h-23.4
				c-0.6-1.6-1.4-3.9-2.3-7c-0.4-1.4-0.7-2.3-0.8-2.8c-4,3.9-8.4,6.9-13,8.8c-4.6,2-9.5,2.9-14.7,2.9c-9.2,0-16.5-2.5-21.8-7.5
				c-5.3-5-8-11.3-8-18.9c0-5,1.2-9.6,3.6-13.5c2.4-4,5.8-7,10.1-9.1c4.3-2.1,10.6-3.9,18.8-5.5c11.1-2.1,18.7-4,23-5.8v-2.4
				c0-4.5-1.1-7.8-3.4-9.7c-2.2-1.9-6.5-2.9-12.7-2.9c-4.2,0-7.5,0.8-9.8,2.5C623.2,860.7,621.3,863.6,619.9,867.8z M651.5,887
				c-3,1-7.8,2.2-14.4,3.6c-6.6,1.4-10.9,2.8-12.9,4.1c-3.1,2.2-4.6,5-4.6,8.3c0,3.3,1.2,6.2,3.7,8.6c2.5,2.4,5.6,3.6,9.4,3.6
				c4.3,0,8.3-1.4,12.2-4.2c2.9-2.1,4.7-4.7,5.6-7.8c0.6-2,0.9-5.9,0.9-11.5L651.5,887L651.5,887L651.5,887z"/>
			<path class="st8" d="M697.4,840.5h22v13.1c2.9-4.5,6.7-8.1,11.6-10.9c4.9-2.8,10.3-4.2,16.2-4.2c10.4,0,19.2,4.1,26.4,12.2
				c7.2,8.1,10.9,19.5,10.9,34c0,14.9-3.6,26.5-10.9,34.8c-7.3,8.3-16.1,12.4-26.5,12.4c-4.9,0-9.4-1-13.4-2.9
				c-4-2-8.2-5.3-12.7-10.1v45h-23.6V840.5z M720.8,883.7c0,10,2,17.5,6,22.3c4,4.8,8.8,7.2,14.6,7.2c5.5,0,10.1-2.2,13.7-6.6
				c3.6-4.4,5.5-11.6,5.5-21.7c0-9.4-1.9-16.3-5.6-20.9c-3.8-4.5-8.4-6.8-14-6.8c-5.8,0-10.6,2.2-14.4,6.7
				C722.7,868.3,720.8,874.9,720.8,883.7z"/>
			<path class="st8" d="M855.1,901.5l23.6,4c-3,8.6-7.8,15.2-14.3,19.7c-6.5,4.5-14.7,6.8-24.5,6.8c-15.5,0-27-5.1-34.5-15.2
				c-5.9-8.1-8.8-18.4-8.8-30.8c0-14.8,3.9-26.4,11.6-34.8c7.7-8.4,17.5-12.6,29.4-12.6c13.3,0,23.8,4.4,31.5,13.2
				c7.7,8.8,11.4,22.2,11,40.4h-59.3c0.2,7,2.1,12.5,5.7,16.4c3.6,3.9,8.2,5.8,13.6,5.8c3.7,0,6.8-1,9.3-3
				C851.9,909.2,853.8,905.9,855.1,901.5z M856.4,877.6c-0.2-6.8-1.9-12-5.3-15.6c-3.4-3.6-7.5-5.3-12.3-5.3
				c-5.2,0-9.4,1.9-12.8,5.6c-3.4,3.8-5,8.9-5,15.3H856.4z"/>
			<path class="st8" d="M890.9,904.4l23.7-3.6c1,4.6,3.1,8.1,6.1,10.5c3.1,2.4,7.4,3.6,13,3.6c6.1,0,10.7-1.1,13.8-3.4
				c2.1-1.6,3.1-3.7,3.1-6.3c0-1.8-0.6-3.3-1.7-4.5c-1.2-1.1-3.8-2.2-7.9-3.1c-19.1-4.2-31.2-8-36.3-11.5
				c-7.1-4.8-10.6-11.5-10.6-20.1c0-7.7,3.1-14.3,9.2-19.5c6.1-5.3,15.6-7.9,28.4-7.9c12.2,0,21.3,2,27.3,6c5.9,4,10,9.9,12.3,17.7
				l-22.3,4.1c-1-3.5-2.8-6.1-5.4-8c-2.7-1.9-6.5-2.8-11.4-2.8c-6.2,0-10.7,0.9-13.4,2.6c-1.8,1.2-2.7,2.8-2.7,4.8
				c0,1.7,0.8,3.1,2.4,4.3c2.1,1.6,9.5,3.8,22.1,6.6c12.6,2.9,21.4,6.4,26.4,10.5c4.9,4.2,7.4,10.1,7.4,17.6
				c0,8.2-3.4,15.2-10.3,21.1c-6.8,5.9-17,8.8-30.4,8.8c-12.2,0-21.8-2.5-28.9-7.4C897.7,919.6,893.1,912.9,890.9,904.4z"/>
		</g>
		<g class="st7">
			<rect x="528.9" y="189.5" class="st9" width="324.2" height="324.2"/>
			<circle class="st9" cx="396.5" cy="418.5" r="169.7"/>
			<polygon class="st9" points="556.7,687.8 368.5,687.8 462.6,524.8 556.7,361.8 650.8,524.8 744.9,687.8 			"/>
		</g>
	</g>
	<g id="_x33_D_Shapes" class="st2">
		<g class="st7">
			<path class="st8" d="M106.4,897.2l22.9-2.8c0.7,5.8,2.7,10.3,5.9,13.4c3.2,3.1,7.1,4.6,11.6,4.6c4.9,0,9-1.9,12.3-5.6
				c3.3-3.7,5-8.7,5-15c0-6-1.6-10.7-4.8-14.2c-3.2-3.5-7.1-5.2-11.7-5.2c-3,0-6.7,0.6-10.9,1.8l2.6-19.3c6.4,0.2,11.3-1.2,14.7-4.2
				s5.1-6.9,5.1-11.8c0-4.2-1.2-7.5-3.7-9.9c-2.5-2.5-5.8-3.7-9.9-3.7c-4,0-7.5,1.4-10.4,4.2c-2.9,2.8-4.6,6.9-5.2,12.3l-21.8-3.7
				c1.5-7.5,3.8-13.4,6.9-17.9c3.1-4.5,7.3-8,12.8-10.5c5.5-2.6,11.6-3.8,18.4-3.8c11.6,0,20.9,3.7,28,11.1
				c5.8,6.1,8.7,12.9,8.7,20.6c0,10.8-5.9,19.5-17.8,25.9c7.1,1.5,12.7,4.9,17,10.2c4.2,5.3,6.4,11.7,6.4,19.1
				c0,10.8-4,20.1-11.9,27.7c-7.9,7.6-17.8,11.5-29.6,11.5c-11.2,0-20.4-3.2-27.8-9.6C111.8,916,107.6,907.6,106.4,897.2z"/>
			<path class="st8" d="M208.3,806.5h45.6c10.3,0,18.1,0.8,23.5,2.4c7.2,2.1,13.4,5.9,18.6,11.4c5.2,5.4,9.1,12.1,11.8,20
				c2.7,7.9,4,17.6,4,29.2c0,10.2-1.3,18.9-3.8,26.3c-3.1,9-7.5,16.3-13.2,21.8c-4.3,4.2-10.2,7.5-17.5,9.9
				c-5.5,1.7-12.9,2.6-22.1,2.6h-46.9L208.3,806.5L208.3,806.5z M233.2,827.3v81.8h18.6c7,0,12-0.4,15.1-1.2c4-1,7.4-2.7,10.1-5.1
				c2.7-2.4,4.8-6.4,6.5-11.9c1.7-5.5,2.5-13.1,2.5-22.6c0-9.5-0.8-16.9-2.5-22c-1.7-5.1-4-9.1-7.1-12c-3-2.9-6.9-4.8-11.5-5.8
				c-3.5-0.8-10.3-1.2-20.5-1.2L233.2,827.3L233.2,827.3z"/>
			<path class="st8" d="M374.6,889.8l24.3-2.4c1.5,8.1,4.4,14.1,8.9,17.9c4.5,3.8,10.5,5.7,18.1,5.7c8,0,14.1-1.7,18.2-5.1
				c4.1-3.4,6.1-7.4,6.1-11.9c0-2.9-0.9-5.4-2.6-7.5c-1.7-2-4.7-3.8-9-5.3c-2.9-1-9.6-2.8-20-5.4c-13.4-3.3-22.7-7.4-28.1-12.2
				c-7.6-6.8-11.4-15.1-11.4-24.8c0-6.3,1.8-12.2,5.3-17.6c3.6-5.5,8.7-9.6,15.4-12.5s14.8-4.3,24.3-4.3c15.5,0,27.2,3.4,35,10.2
				c7.8,6.8,11.9,15.9,12.3,27.2l-24.9,1.1c-1.1-6.3-3.4-10.9-6.9-13.7c-3.5-2.8-8.8-4.2-15.8-4.2c-7.2,0-12.9,1.5-17,4.5
				c-2.6,1.9-4,4.5-4,7.7c0,2.9,1.2,5.4,3.7,7.5c3.1,2.6,10.8,5.4,22.9,8.3c12.1,2.9,21.1,5.8,26.9,8.9c5.8,3.1,10.4,7.2,13.6,12.5
				s4.9,11.9,4.9,19.7c0,7.1-2,13.7-5.9,19.9c-3.9,6.2-9.5,10.8-16.7,13.8c-7.2,3-16.1,4.5-26.9,4.5c-15.6,0-27.6-3.6-36-10.8
				C381.2,914.1,376.2,903.6,374.6,889.8z"/>
			<path class="st8" d="M519.4,806.5v45.4c7.6-8.9,16.8-13.4,27.4-13.4c5.4,0,10.4,1,14.7,3s7.7,4.6,9.9,7.7
				c2.2,3.1,3.7,6.6,4.5,10.4c0.8,3.8,1.2,9.7,1.2,17.8v52.5h-23.7v-47.3c0-9.4-0.5-15.3-1.3-17.9c-0.9-2.5-2.5-4.5-4.8-6
				c-2.3-1.5-5.1-2.2-8.5-2.2c-3.9,0-7.4,1-10.5,2.9c-3.1,1.9-5.3,4.8-6.8,8.6c-1.4,3.8-2.1,9.5-2.1,17.1v44.8h-23.7V806.5H519.4z"
				/>
			<path class="st8" d="M618.8,867.8l-21.5-3.9c2.4-8.6,6.6-15,12.5-19.2c5.9-4.2,14.7-6.2,26.3-6.2c10.6,0,18.4,1.3,23.6,3.7
				c5.2,2.5,8.8,5.7,10.9,9.5c2.1,3.8,3.2,10.9,3.2,21.2l-0.3,27.6c0,7.9,0.4,13.7,1.1,17.4c0.8,3.7,2.2,7.7,4.3,12h-23.4
				c-0.6-1.6-1.4-3.9-2.3-7c-0.4-1.4-0.7-2.3-0.8-2.8c-4,3.9-8.4,6.9-13,8.8c-4.6,2-9.5,2.9-14.7,2.9c-9.2,0-16.5-2.5-21.8-7.5
				c-5.3-5-8-11.3-8-19c0-5.1,1.2-9.6,3.6-13.5c2.4-4,5.8-7,10.1-9.1c4.4-2.1,10.6-3.9,18.8-5.5c11.1-2.1,18.7-4,23-5.8v-2.4
				c0-4.5-1.1-7.8-3.4-9.7c-2.2-1.9-6.5-2.9-12.7-2.9c-4.2,0-7.5,0.8-9.9,2.5S620.3,863.6,618.8,867.8z M650.5,887
				c-3,1-7.8,2.2-14.4,3.6c-6.6,1.4-10.9,2.8-12.9,4.1c-3.1,2.2-4.6,5-4.6,8.3c0,3.3,1.2,6.2,3.7,8.6c2.5,2.4,5.6,3.6,9.4,3.6
				c4.3,0,8.3-1.4,12.2-4.2c2.9-2.1,4.7-4.7,5.6-7.8c0.6-2,0.9-5.9,0.9-11.5L650.5,887L650.5,887z"/>
			<path class="st8" d="M696.4,840.5h22.1v13.1c2.9-4.5,6.7-8.1,11.6-11c4.9-2.8,10.3-4.2,16.3-4.2c10.4,0,19.2,4.1,26.4,12.2
				c7.2,8.1,10.9,19.5,10.9,34c0,14.9-3.7,26.5-11,34.8c-7.3,8.3-16.1,12.4-26.5,12.4c-4.9,0-9.4-1-13.4-2.9c-4-2-8.2-5.3-12.7-10.1
				V964h-23.7L696.4,840.5L696.4,840.5z M719.8,883.7c0,10.1,2,17.5,6,22.3c4,4.8,8.8,7.2,14.6,7.2c5.5,0,10.1-2.2,13.7-6.6
				c3.6-4.4,5.5-11.6,5.5-21.7c0-9.4-1.9-16.3-5.6-20.9c-3.8-4.5-8.4-6.8-14-6.8c-5.8,0-10.6,2.2-14.4,6.7
				C721.7,868.3,719.8,874.9,719.8,883.7z"/>
			<path class="st8" d="M854.3,901.5l23.6,4c-3,8.6-7.8,15.2-14.4,19.8c-6.5,4.5-14.7,6.8-24.6,6.8c-15.6,0-27.1-5.1-34.5-15.2
				c-5.9-8.1-8.8-18.4-8.8-30.8c0-14.8,3.9-26.4,11.6-34.8c7.7-8.4,17.5-12.6,29.4-12.6c13.3,0,23.8,4.4,31.5,13.2
				c7.7,8.8,11.4,22.3,11,40.4h-59.3c0.2,7,2.1,12.5,5.7,16.4c3.6,3.9,8.2,5.9,13.6,5.9c3.7,0,6.8-1,9.3-3
				C851.1,909.2,853,906,854.3,901.5z M855.6,877.5c-0.2-6.8-1.9-12.1-5.3-15.6c-3.4-3.6-7.5-5.3-12.3-5.3c-5.2,0-9.4,1.9-12.8,5.6
				c-3.4,3.8-5,8.9-5,15.3L855.6,877.5L855.6,877.5z"/>
			<path class="st8" d="M890.1,904.4l23.8-3.6c1,4.6,3.1,8.1,6.1,10.5c3.1,2.4,7.4,3.6,13,3.6c6.1,0,10.7-1.1,13.8-3.4
				c2.1-1.6,3.1-3.7,3.1-6.3c0-1.8-0.6-3.3-1.7-4.5c-1.2-1.1-3.8-2.2-7.9-3.1c-19.1-4.2-31.2-8.1-36.3-11.5
				c-7.1-4.8-10.6-11.5-10.6-20.1c0-7.7,3.1-14.3,9.2-19.5c6.1-5.3,15.6-7.9,28.5-7.9c12.2,0,21.3,2,27.3,6c6,4,10.1,9.9,12.3,17.7
				l-22.3,4.1c-1-3.5-2.8-6.1-5.4-8c-2.7-1.9-6.5-2.8-11.4-2.8c-6.2,0-10.7,0.9-13.4,2.6c-1.8,1.2-2.7,2.8-2.7,4.8
				c0,1.7,0.8,3.1,2.4,4.3c2.1,1.6,9.5,3.8,22.1,6.7c12.6,2.9,21.4,6.4,26.4,10.5c4.9,4.2,7.4,10.1,7.4,17.6
				c0,8.2-3.4,15.2-10.3,21.1c-6.9,5.9-17,8.8-30.4,8.8c-12.2,0-21.8-2.5-28.9-7.4C896.9,919.6,892.2,912.9,890.1,904.4z"/>
		</g>
		<g class="st7">
			<path class="st8" d="M760,543.9c-0.2-75.4-0.2-150.8,0-226.2c0-8.6-3-14.2-10.6-18.5c-66.5-37.8-132.9-75.8-199.3-113.8
				c-2.1-1.2-4.1-2.3-6.2-3.5c-2.6,0-5.2,0-7.8,0c-68.6,39.2-137.2,78.5-205.9,117.6c-7,4-10.1,9.2-10.1,17.2
				c0.1,76.2,0.1,152.4,0,228.7c0,7.8,2.9,13.1,9.7,17c66.6,37.9,133.2,76,199.8,114c2.2,1.3,4.4,2.5,6.5,3.8c2.6,0,5.2,0,7.8,0
				c68.2-39,136.4-78,204.7-116.8C756.5,558.8,760,553.1,760,543.9z M525.4,638.1c0,0.5-0.1,1-0.1,1.5c-1.7,0.5-2.7-0.8-3.8-1.5
				c-56.2-32-112.3-64.1-168.5-96.2c-2.1-1.2-3.8-2.1-3.8-5.3c0.1-65,0.1-130,0.1-195c0-0.6,0.1-1.2,0.1-2.5c4.2,2.3,8,4.4,11.7,6.5
				c53.5,30.6,106.9,61.2,160.4,91.7c2.4,1.4,3.8,2.6,3.8,5.8C525.3,508.1,525.4,573.1,525.4,638.1z M536.6,412.3
				c-56.5-32.4-113.1-64.8-169.7-97.1c-0.7-0.4-1.4-0.8-2.5-1.5c14-8,27.7-15.9,41.4-23.7c43.4-24.8,86.8-49.6,130.2-74.4
				c2.5-1.5,4.5-2.2,7.5-0.5c56.5,32.5,113.1,64.8,169.7,97.1c0.7,0.4,1.4,0.8,2.5,1.6c-26.9,15.3-53.2,30.3-79.4,45.3
				c-30.8,17.6-61.5,35.1-92.2,52.8C541.4,413.4,539.4,414,536.6,412.3z M726.6,542.2c-55.8,31.7-111.5,63.6-167.3,95.5
				c-1.4,0.8-2.7,1.6-4.8,2.7c0-48.6,0-96.5,0-144.3c0-17.7,0-35.3-0.1-53c0-2.5,0.6-4,3-5.3c56.5-32.2,112.9-64.4,169.3-96.6
				c1-0.6,2-1.7,3.8-1.3c0,1.5,0,3.1,0,4.6c0,63.5,0,127.1,0.1,190.6C730.7,538.7,729.6,540.4,726.6,542.2z"/>
		</g>
	</g>
	<g id="Grayscale" class="st2">
		<g class="st7">
			<path class="st8" d="M196.9,884.5v-20.8h53.7v49.2c-5.2,5.1-12.8,9.5-22.7,13.3c-9.9,3.8-19.9,5.8-30.1,5.8
				c-12.9,0-24.2-2.7-33.8-8.1c-9.6-5.4-16.8-13.2-21.6-23.2c-4.8-10.1-7.2-21-7.2-32.9c0-12.9,2.7-24.3,8.1-34.3
				c5.4-10,13.3-17.7,23.7-23c7.9-4.1,17.8-6.1,29.6-6.1c15.3,0,27.3,3.2,35.9,9.6c8.6,6.4,14.2,15.3,16.6,26.7l-24.8,4.6
				c-1.7-6.1-5-10.9-9.8-14.4c-4.8-3.5-10.8-5.3-18-5.3c-10.9,0-19.6,3.5-26,10.4c-6.4,6.9-9.6,17.2-9.6,30.7
				c0,14.7,3.3,25.6,9.8,33c6.5,7.3,15,11,25.6,11c5.2,0,10.5-1,15.7-3.1c5.3-2,9.8-4.5,13.5-7.5v-15.7L196.9,884.5L196.9,884.5
				L196.9,884.5z"/>
			<path class="st8" d="M296.1,929.9h-23.7v-89.5h22v12.7c3.8-6,7.1-10,10.1-11.9c3-1.9,6.4-2.9,10.2-2.9c5.4,0,10.6,1.5,15.6,4.5
				l-7.3,20.6c-4-2.6-7.7-3.9-11.1-3.9c-3.3,0-6.1,0.9-8.4,2.7c-2.3,1.8-4.1,5.1-5.4,9.9c-1.3,4.8-2,14.8-2,30L296.1,929.9
				L296.1,929.9z"/>
			<path class="st8" d="M358.3,867.8l-21.5-3.9c2.4-8.6,6.6-15,12.5-19.2c5.9-4.2,14.7-6.2,26.3-6.2c10.6,0,18.4,1.3,23.6,3.7
				c5.2,2.5,8.8,5.7,10.9,9.5c2.1,3.8,3.2,10.9,3.2,21.2l-0.3,27.6c0,7.9,0.4,13.7,1.1,17.4c0.8,3.7,2.2,7.7,4.3,12h-23.4
				c-0.6-1.6-1.4-3.9-2.3-7c-0.4-1.4-0.7-2.3-0.8-2.8c-4,3.9-8.4,6.9-13,8.8c-4.6,2-9.5,2.9-14.7,2.9c-9.2,0-16.5-2.5-21.8-7.5
				c-5.3-5-8-11.3-8-19c0-5.1,1.2-9.6,3.6-13.5c2.4-4,5.8-7,10.1-9.1c4.4-2.1,10.6-3.9,18.8-5.5c11.1-2.1,18.7-4,23-5.8v-2.4
				c0-4.5-1.1-7.8-3.4-9.7c-2.2-1.9-6.5-2.9-12.7-2.9c-4.2,0-7.5,0.8-9.9,2.5S359.7,863.6,358.3,867.8z M389.9,887
				c-3,1-7.8,2.2-14.4,3.6c-6.6,1.4-10.9,2.8-12.9,4.1c-3.1,2.2-4.6,5-4.6,8.3c0,3.3,1.2,6.2,3.7,8.6c2.5,2.4,5.6,3.6,9.4,3.6
				c4.3,0,8.3-1.4,12.2-4.2c2.9-2.1,4.7-4.7,5.6-7.8c0.6-2,0.9-5.9,0.9-11.5L389.9,887L389.9,887z"/>
			<path class="st8" d="M425.3,840.5h25.2l21.4,63.5l20.9-63.5h24.5l-31.6,86.1l-5.6,15.6c-2.1,5.2-4.1,9.2-5.9,12
				c-1.9,2.8-4,5-6.5,6.7c-2.4,1.7-5.4,3-9,4c-3.6,1-7.6,1.4-12.1,1.4c-4.5,0-9-0.5-13.4-1.4l-2.1-18.5c3.7,0.7,7,1.1,10,1.1
				c5.5,0,9.6-1.6,12.2-4.8s4.7-7.3,6.1-12.3L425.3,840.5z"/>
			<path class="st8" d="M524.1,904.4l23.8-3.6c1,4.6,3.1,8.1,6.1,10.5c3.1,2.4,7.4,3.6,13,3.6c6.1,0,10.7-1.1,13.8-3.4
				c2.1-1.6,3.1-3.7,3.1-6.3c0-1.8-0.6-3.3-1.7-4.5c-1.2-1.1-3.8-2.2-7.9-3.1c-19.1-4.2-31.2-8.1-36.3-11.5
				c-7.1-4.8-10.6-11.5-10.6-20.1c0-7.7,3.1-14.3,9.2-19.5c6.1-5.3,15.6-7.9,28.5-7.9c12.2,0,21.3,2,27.3,6c6,4,10.1,9.9,12.3,17.7
				l-22.3,4.1c-1-3.5-2.8-6.1-5.4-8c-2.7-1.9-6.5-2.8-11.4-2.8c-6.2,0-10.7,0.9-13.4,2.6c-1.8,1.2-2.7,2.8-2.7,4.8
				c0,1.7,0.8,3.1,2.4,4.3c2.1,1.6,9.5,3.8,22.1,6.7c12.6,2.9,21.4,6.4,26.4,10.5c4.9,4.2,7.4,10.1,7.4,17.6
				c0,8.2-3.4,15.2-10.3,21.1c-6.9,5.9-17,8.8-30.4,8.8c-12.2,0-21.8-2.5-28.9-7.4C530.9,919.6,526.3,912.9,524.1,904.4z"/>
			<path class="st8" d="M706.4,866.9l-23.3,4.2c-0.8-4.7-2.6-8.2-5.3-10.5s-6.4-3.5-10.8-3.5c-5.9,0-10.6,2-14.1,6.1
				c-3.5,4.1-5.3,10.9-5.3,20.4c0,10.6,1.8,18.1,5.3,22.5c3.6,4.4,8.4,6.6,14.4,6.6c4.5,0,8.2-1.3,11-3.8c2.9-2.6,4.9-6.9,6.1-13.2
				l23.2,4c-2.4,10.7-7,18.7-13.9,24.2c-6.9,5.4-16,8.2-27.5,8.2c-13.1,0-23.5-4.1-31.3-12.4c-7.8-8.3-11.7-19.7-11.7-34.3
				c0-14.8,3.9-26.3,11.7-34.5c7.8-8.2,18.4-12.3,31.7-12.3c10.9,0,19.6,2.3,26,7C699,850.2,703.6,857.3,706.4,866.9z"/>
			<path class="st8" d="M742,867.8l-21.5-3.9c2.4-8.6,6.6-15,12.5-19.2c5.9-4.2,14.7-6.2,26.3-6.2c10.6,0,18.4,1.3,23.6,3.7
				c5.2,2.5,8.8,5.7,10.9,9.5c2.1,3.8,3.2,10.9,3.2,21.2l-0.3,27.6c0,7.9,0.4,13.7,1.1,17.4c0.8,3.7,2.2,7.7,4.3,12h-23.4
				c-0.6-1.6-1.4-3.9-2.3-7c-0.4-1.4-0.7-2.3-0.8-2.8c-4,3.9-8.4,6.9-13,8.8c-4.6,2-9.5,2.9-14.7,2.9c-9.2,0-16.5-2.5-21.8-7.5
				c-5.3-5-8-11.3-8-19c0-5.1,1.2-9.6,3.6-13.5c2.4-4,5.8-7,10.1-9.1c4.4-2.1,10.6-3.9,18.8-5.5c11.1-2.1,18.7-4,23-5.8v-2.4
				c0-4.5-1.1-7.8-3.4-9.7c-2.2-1.9-6.5-2.9-12.7-2.9c-4.2,0-7.5,0.8-9.9,2.5S743.5,863.6,742,867.8z M773.7,887
				c-3,1-7.8,2.2-14.4,3.6c-6.6,1.4-10.9,2.8-12.9,4.1c-3.1,2.2-4.6,5-4.6,8.3c0,3.3,1.2,6.2,3.7,8.6c2.5,2.4,5.6,3.6,9.4,3.6
				c4.3,0,8.3-1.4,12.2-4.2c2.9-2.1,4.7-4.7,5.6-7.8c0.6-2,0.9-5.9,0.9-11.5L773.7,887L773.7,887z"/>
			<path class="st8" d="M820.3,929.9V806.5h23.7v123.5H820.3z"/>
			<path class="st8" d="M920,901.5l23.6,4c-3,8.6-7.8,15.2-14.4,19.8c-6.5,4.5-14.7,6.8-24.6,6.8c-15.6,0-27.1-5.1-34.5-15.2
				c-5.9-8.1-8.8-18.4-8.8-30.8c0-14.8,3.9-26.4,11.6-34.8c7.7-8.4,17.5-12.6,29.4-12.6c13.3,0,23.8,4.4,31.5,13.2
				c7.7,8.8,11.4,22.3,11,40.4h-59.3c0.2,7,2.1,12.5,5.7,16.4c3.6,3.9,8.2,5.9,13.6,5.9c3.7,0,6.8-1,9.3-3
				C916.8,909.2,918.7,906,920,901.5z M921.3,877.5c-0.2-6.8-1.9-12.1-5.3-15.6c-3.4-3.6-7.5-5.3-12.3-5.3c-5.2,0-9.4,1.9-12.8,5.6
				c-3.4,3.8-5,8.9-5,15.3L921.3,877.5L921.3,877.5z"/>
		</g>
		<g class="st7">
			<path class="st8" d="M540.2,181.9C403,181.7,290.9,293.7,290.9,431c0,137.3,111.9,249.2,249.3,249.1
				c137.1-0.1,248.9-111.7,249-248.8C789.2,293.9,677.7,182.1,540.2,181.9z M495.7,225c7-1.5,14.1-2.3,21.2-3.5c3-0.5,4.1,0.3,4,3.6
				c-0.2,8-0.1,15.9,0,23.9c0,2.3-0.1,3.6-3.1,3.6c-29.3-0.1-58.6-0.2-87.9-0.2c-0.1,0-0.2-0.3-0.5-0.8
				C449.9,238.8,472,229.9,495.7,225z M381.5,292c1.3-1.5,2.9-1.1,4.4-1.1c43.7,0,87.3,0,131-0.1c3,0,4.1,0.6,4.1,3.9
				c-0.2,11.2-0.2,22.3,0,33.5c0.1,3.6-1.2,4.2-4.5,4.2c-53.8-0.1-107.6-0.1-162.7-0.1C361.7,317.2,370.9,304.1,381.5,292z
				 M330.6,406.6c1.6-10.6,3.5-21.2,6.2-31.6c0.8-3.1,2-4.5,5.6-4.5c58.1,0.1,116.1,0.1,174.2,0c3.3,0,4.5,0.7,4.4,4.2
				c-0.2,10.8-0.3,21.6,0,32.3c0.1,3.9-1,4.9-4.9,4.9c-30.1-0.2-60.3-0.1-90.4-0.1s-60.3-0.1-90.4,0.1
				C330.8,412,330,410.7,330.6,406.6z M517,640.6c-31.4-3.7-60.7-13.4-87.2-31.1c29.1,0,58.2,0,87.3-0.1c2.7,0,3.9,0.4,3.8,3.5
				c-0.2,8.2-0.2,16.4,0,24.5C521,640.7,519.5,640.9,517,640.6z M516.5,571.1c-43.5-0.1-87-0.1-130.4-0.1c-1.7,0-3.5,0.3-4.9-1.3
				c-10.3-12.1-19.5-24.9-27.3-40c55.1,0,108.9,0,162.7-0.1c3.4,0,4.4,1,4.3,4.4c-0.2,11-0.2,21.9,0,32.9
				C521,570.5,519.7,571.1,516.5,571.1z M520.9,455.3c-0.3,10.6-0.3,21.2,0,31.7c0.1,3.8-1.1,4.6-4.7,4.6
				c-57.9-0.1-115.8-0.1-173.6,0c-3.3,0-4.9-0.9-5.8-4.2c-2.8-10.8-4.7-21.8-6.3-32.8c-0.6-4,0.9-4.5,4.4-4.5
				c30.3,0.1,60.7,0.1,91,0.1c29.9,0,59.9,0.1,89.8-0.1C519.9,450.1,521.1,451.1,520.9,455.3z M583.9,637.1
				c-6.2,1.3-12.6,2.1-18.8,3.3c-4.4,0.9-6,0-6-5.1c0.2-41.7,0.1-83.4,0.1-125.1c0-26.3,0-52.7,0-79c0-67.8,0.1-135.7-0.1-203.5
				c0-5.3,1-6.7,6.4-5.9c79.9,12,137.8,54.3,169,128.7C786,473.7,711.8,610,583.9,637.1z"/>
		</g>
	</g>
	<g id="Save_As..." class="st2">
		<g class="st7">
			<path class="st8" d="M141.9,889.6l24.3-2.4c1.5,8.1,4.4,14.1,8.9,17.9c4.5,3.8,10.5,5.7,18.1,5.7c8,0,14.1-1.7,18.2-5.1
				c4.1-3.4,6.1-7.4,6.1-11.9c0-2.9-0.9-5.4-2.6-7.5c-1.7-2-4.7-3.8-9-5.3c-2.9-1-9.6-2.8-20-5.4c-13.4-3.3-22.7-7.4-28.1-12.2
				c-7.6-6.8-11.4-15.1-11.4-24.8c0-6.3,1.8-12.2,5.3-17.6c3.6-5.5,8.7-9.6,15.4-12.5s14.8-4.3,24.3-4.3c15.5,0,27.2,3.4,35,10.2
				c7.8,6.8,11.9,15.9,12.3,27.2l-24.9,1.1c-1.1-6.3-3.4-10.9-6.9-13.7c-3.5-2.8-8.8-4.2-15.8-4.2c-7.2,0-12.9,1.5-17,4.5
				c-2.6,1.9-4,4.5-4,7.7c0,2.9,1.2,5.4,3.7,7.5c3.1,2.6,10.8,5.4,22.9,8.3c12.1,2.9,21.1,5.8,26.9,8.9c5.8,3.1,10.4,7.2,13.6,12.5
				s4.9,11.9,4.9,19.7c0,7.1-2,13.7-5.9,19.9c-3.9,6.2-9.5,10.8-16.7,13.8c-7.2,3-16.1,4.5-26.9,4.5c-15.6,0-27.6-3.6-36-10.8
				C148.5,914,143.5,903.5,141.9,889.6z"/>
			<path class="st8" d="M280.8,867.7l-21.5-3.9c2.4-8.6,6.6-15,12.5-19.2c5.9-4.2,14.7-6.2,26.3-6.2c10.6,0,18.4,1.3,23.6,3.7
				c5.2,2.5,8.8,5.7,10.9,9.5c2.1,3.8,3.2,10.9,3.2,21.2l-0.3,27.6c0,7.9,0.4,13.7,1.1,17.4c0.8,3.7,2.2,7.7,4.3,12h-23.4
				c-0.6-1.6-1.4-3.9-2.3-7c-0.4-1.4-0.7-2.3-0.8-2.8c-4,3.9-8.4,6.9-13,8.8c-4.6,2-9.5,2.9-14.7,2.9c-9.2,0-16.5-2.5-21.8-7.5
				c-5.3-5-8-11.3-8-19c0-5.1,1.2-9.6,3.6-13.5c2.4-4,5.8-7,10.1-9.1c4.4-2.1,10.6-3.9,18.8-5.5c11.1-2.1,18.7-4,23-5.8v-2.4
				c0-4.5-1.1-7.8-3.4-9.7c-2.2-1.9-6.5-2.9-12.7-2.9c-4.2,0-7.5,0.8-9.9,2.5S282.2,863.5,280.8,867.7z M312.5,886.9
				c-3,1-7.8,2.2-14.4,3.6c-6.6,1.4-10.9,2.8-12.9,4.1c-3.1,2.2-4.6,5-4.6,8.3c0,3.3,1.2,6.2,3.7,8.6c2.5,2.4,5.6,3.6,9.4,3.6
				c4.3,0,8.3-1.4,12.2-4.2c2.9-2.1,4.7-4.7,5.6-7.8c0.6-2,0.9-5.9,0.9-11.5V886.9z"/>
			<path class="st8" d="M383.6,929.8l-36-89.5h24.8l16.8,45.7l4.9,15.2c1.3-3.9,2.1-6.4,2.4-7.7c0.8-2.5,1.6-5.1,2.5-7.6l17-45.7
				h24.3l-35.5,89.5H383.6z"/>
			<path class="st8" d="M506.8,901.4l23.6,4c-3,8.6-7.8,15.2-14.4,19.8c-6.5,4.5-14.7,6.8-24.6,6.8c-15.6,0-27.1-5.1-34.5-15.2
				c-5.9-8.1-8.8-18.4-8.8-30.8c0-14.8,3.9-26.4,11.6-34.8c7.7-8.4,17.5-12.6,29.4-12.6c13.3,0,23.8,4.4,31.5,13.2
				c7.7,8.8,11.4,22.3,11,40.4h-59.3c0.2,7,2.1,12.5,5.7,16.4c3.6,3.9,8.2,5.9,13.6,5.9c3.7,0,6.8-1,9.3-3
				C503.6,909.1,505.5,905.8,506.8,901.4z M508.1,877.4c-0.2-6.8-1.9-12.1-5.3-15.6c-3.4-3.6-7.5-5.3-12.3-5.3
				c-5.2,0-9.4,1.9-12.8,5.6c-3.4,3.8-5,8.9-5,15.3H508.1z"/>
			<path class="st8" d="M704,929.8h-27.1l-10.8-28h-49.4l-10.2,28h-26.4l48.1-123.5h26.4L704,929.8z M658,881l-17-45.8L624.4,881
				H658z"/>
			<path class="st8" d="M708.7,904.3l23.8-3.6c1,4.6,3.1,8.1,6.1,10.5c3.1,2.4,7.4,3.6,13,3.6c6.1,0,10.7-1.1,13.8-3.4
				c2.1-1.6,3.1-3.7,3.1-6.3c0-1.8-0.6-3.3-1.7-4.5c-1.2-1.1-3.8-2.2-7.9-3.1c-19.1-4.2-31.2-8.1-36.3-11.5
				c-7.1-4.8-10.6-11.5-10.6-20.1c0-7.7,3.1-14.3,9.2-19.5c6.1-5.3,15.6-7.9,28.5-7.9c12.2,0,21.3,2,27.3,6c6,4,10.1,9.9,12.3,17.7
				l-22.3,4.1c-1-3.5-2.8-6.1-5.4-8c-2.7-1.9-6.5-2.8-11.4-2.8c-6.2,0-10.7,0.9-13.4,2.6c-1.8,1.2-2.7,2.8-2.7,4.8
				c0,1.7,0.8,3.1,2.4,4.3c2.1,1.6,9.5,3.8,22.1,6.7c12.6,2.9,21.4,6.4,26.4,10.5c4.9,4.2,7.4,10.1,7.4,17.6
				c0,8.2-3.4,15.2-10.3,21.1c-6.9,5.9-17,8.8-30.4,8.8c-12.2,0-21.8-2.5-28.9-7.4C715.5,919.5,710.9,912.8,708.7,904.3z"/>
			<path class="st8" d="M812.9,929.8v-23.7h23.7v23.7H812.9z"/>
			<path class="st8" d="M860.9,929.8v-23.7h23.7v23.7H860.9z"/>
			<path class="st8" d="M908.8,929.8v-23.7h23.7v23.7H908.8z"/>
		</g>
		<g class="st7">
			<path class="st8" d="M290.9,430.7c0-65.4,0-130.8,0-196.1c0-31.5,21.2-52.7,52.6-52.7c30.6,0,61.2,0.1,91.8-0.1
				c4,0,5.1,0.9,5.1,5c-0.2,41.9-0.1,83.7-0.1,125.6c0,21.7,13.9,35.6,35.7,35.6c42.7,0,85.4,0,128.2,0c21.4,0,35.4-14,35.4-35.3
				c0-41.9,0.1-83.7-0.1-125.6c0-4.3,1-5.5,5.3-5.3c9,0.4,18,0.2,27,0.1c5.3-0.1,9.7,1.8,13.5,5.5c32.8,32.8,65.5,65.6,98.3,98.3
				c3.7,3.7,5.5,8.2,5.5,13.5c0,110.2,0,220.4-0.1,330.5c0,28.5-21.8,50.1-50.2,50.4c-9.2,0.1-18.3-0.2-27.5,0.1
				c-4.2,0.2-5.4-0.8-5.4-5.2c0.2-47.9,0.2-95.8,0.1-143.7c0-23.6-14.9-42.8-37.4-48.8c-4.4-1.2-8.8-1.6-13.3-1.6
				c-76.8,0-153.6,0-230.4,0c-29.3,0-50.9,21.8-51,51.2c-0.1,47.7-0.1,95.5,0.1,143.2c0,4.2-1.2,5.1-5.1,4.9
				c-11.7-0.5-23.6,1.1-35.2-0.8c-26-4.2-42.8-24.2-42.8-50.5C290.9,562.8,290.9,496.7,290.9,430.7z"/>
			<path class="st8" d="M539.6,680c-42.4,0-84.7-0.1-127.1,0.1c-4.7,0-5.5-1.3-5.5-5.7c0.2-47.2,0.1-94.4,0.1-141.6
				c0-12.4,6.5-18.9,18.8-18.9c76.1,0,152.2,0,228.3,0c11.9,0,18.6,6.7,18.6,18.6c0,47.6-0.1,95.1,0.1,142.7c0,4.4-1.5,4.9-5.2,4.9
				C625,680,582.3,680,539.6,680z"/>
			<path class="st8" d="M606.4,248.8c0,20.6-0.1,41.2,0.1,61.8c0,3.4-0.9,4.2-4.2,4.2c-41.5-0.1-83-0.1-124.5,0
				c-3.4,0-4.2-0.9-4.2-4.2c0.1-41.5,0.1-83,0-124.5c0-3.4,0.9-4.2,4.2-4.2c41.5,0.1,83,0.1,124.5,0c3.4,0,4.3,0.9,4.2,4.2
				C606.3,206.9,606.4,227.9,606.4,248.8z"/>
		</g>
	</g>
	<g id="Upload">
		<g>
			<path class="st8" d="M539.6,680.2c-57.6,0-115.3,0.1-172.9,0c-38.4-0.1-68.1-25-75.1-62.7c-0.6-3.2-0.8-6.6-0.8-9.9
				c-0.1-33.9-0.1-67.8,0-101.7c0-12.1,7.7-21.7,18.8-24.4c10.9-2.7,22.4,2.4,27.9,12.3c2.5,4.6,3,9.5,3,14.7c0,31.2,0,62.3,0,93.5
				c0,18.6,10,28.6,28.4,28.6c114.1,0,228.2,0,342.3,0c18.4,0,28.3-10,28.4-28.7c0-31.9,0-63.9,0-95.8c0-10.5,4.8-18.4,14.4-22.8
				c9-4.2,17.9-3.1,25.8,3c5.8,4.5,9.3,10.6,9.3,18c0,36,0.7,72.1-0.4,108.1c-1.1,34.9-33,66-68,67.5c-18.7,0.8-37.4,0.3-56.1,0.4
				C623,680.2,581.3,680.2,539.6,680.2z"/>
			<path class="st8" d="M515.1,444.4c0-2,0-3.9,0-5.8c0-76.1,0-152.3,0-228.4c0-4.1-0.1-8.1,1.4-12.1c4.2-11.5,15.5-18,27.9-16.1
				c11.1,1.7,19.7,11.5,20.3,23.1c0.1,2.7,0.1,5.4,0.1,8.2c0,76.9,0,153.8,0,231.1c2.5-0.2,3.6-2.3,5-3.6
				c17.3-17.3,34.6-34.8,52-52.1c7.2-7.2,16-9.6,25.7-6.3c9.7,3.2,15.4,10.3,17,20.4c1.2,8-1.3,15.1-6.9,20.8
				c-33.2,33.4-66.5,66.8-100,99.9c-10.2,10.1-25.4,9.7-35.7-0.4c-33.2-32.9-66.2-66-99.1-99.1c-10.3-10.3-10.1-25.7-0.1-35.6
				c10-9.9,25.2-9.9,35.6,0.4c17.4,17.3,34.7,34.7,52,52.1C511.5,442,512.4,443.9,515.1,444.4z"/>
		</g>
		<g>
			<path class="st8" d="M256.6,804.2h24.9v66.9c0,10.6,0.3,17.5,0.9,20.6c1.1,5.1,3.6,9.1,7.6,12.2c4,3.1,9.5,4.6,16.5,4.6
				c7.1,0,12.4-1.4,16-4.3c3.6-2.9,5.8-6.4,6.5-10.7c0.7-4.2,1.1-11.2,1.1-21v-68.3H355v64.9c0,14.8-0.7,25.3-2,31.4
				c-1.3,6.1-3.8,11.3-7.5,15.5c-3.6,4.2-8.5,7.6-14.5,10.1s-14,3.7-23.8,3.7c-11.8,0-20.7-1.4-26.8-4.1
				c-6.1-2.7-10.9-6.3-14.4-10.6c-3.5-4.4-5.9-8.9-7-13.7c-1.6-7.1-2.4-17.5-2.4-31.3V804.2z"/>
			<path class="st8" d="M380.5,838.3h22.1v13.1c2.9-4.5,6.7-8.1,11.6-11c4.9-2.8,10.3-4.2,16.3-4.2c10.4,0,19.2,4.1,26.4,12.2
				c7.2,8.1,10.9,19.5,10.9,34c0,14.9-3.7,26.5-11,34.8c-7.3,8.3-16.1,12.4-26.5,12.4c-4.9,0-9.4-1-13.4-2.9c-4-2-8.2-5.3-12.7-10.1
				v45.1h-23.7V838.3z M403.9,881.5c0,10.1,2,17.5,6,22.3c4,4.8,8.8,7.2,14.6,7.2c5.5,0,10.1-2.2,13.7-6.6
				c3.6-4.4,5.5-11.6,5.5-21.7c0-9.4-1.9-16.3-5.6-20.9c-3.8-4.5-8.4-6.8-14-6.8c-5.8,0-10.6,2.2-14.4,6.7
				C405.8,866.1,403.9,872.7,403.9,881.5z"/>
			<path class="st8" d="M486.5,927.7V804.2h23.7v123.5H486.5z"/>
			<path class="st8" d="M529,881.7c0-7.9,1.9-15.5,5.8-22.8c3.9-7.4,9.4-13,16.5-16.8c7.1-3.9,15-5.8,23.8-5.8
				c13.5,0,24.6,4.4,33.3,13.2c8.6,8.8,13,19.9,13,33.3c0,13.5-4.4,24.8-13.1,33.6c-8.7,8.9-19.7,13.4-33,13.4
				c-8.2,0-16-1.9-23.5-5.6c-7.4-3.7-13.1-9.1-17-16.3C530.9,900.7,529,892,529,881.7z M553.2,883c0,8.9,2.1,15.7,6.3,20.4
				c4.2,4.7,9.4,7.1,15.6,7.1c6.2,0,11.4-2.4,15.5-7.1c4.2-4.7,6.3-11.6,6.3-20.6c0-8.8-2.1-15.5-6.3-20.2
				c-4.2-4.7-9.4-7.1-15.5-7.1c-6.2,0-11.4,2.4-15.6,7.1C555.3,867.3,553.2,874.1,553.2,883z"/>
			<path class="st8" d="M657.5,865.6l-21.5-3.9c2.4-8.6,6.6-15,12.5-19.2c5.9-4.2,14.7-6.2,26.3-6.2c10.6,0,18.4,1.3,23.6,3.7
				c5.2,2.5,8.8,5.7,10.9,9.5c2.1,3.8,3.2,10.9,3.2,21.2l-0.3,27.6c0,7.9,0.4,13.7,1.1,17.4c0.8,3.7,2.2,7.7,4.3,12h-23.4
				c-0.6-1.6-1.4-3.9-2.3-7c-0.4-1.4-0.7-2.3-0.8-2.8c-4,3.9-8.4,6.9-13,8.8c-4.6,2-9.5,2.9-14.7,2.9c-9.2,0-16.5-2.5-21.8-7.5
				c-5.3-5-8-11.3-8-19c0-5.1,1.2-9.6,3.6-13.5c2.4-4,5.8-7,10.1-9.1c4.4-2.1,10.6-3.9,18.8-5.5c11.1-2.1,18.7-4,23-5.8V867
				c0-4.5-1.1-7.8-3.4-9.7c-2.2-1.9-6.5-2.9-12.7-2.9c-4.2,0-7.5,0.8-9.9,2.5S659,861.4,657.5,865.6z M689.2,884.8
				c-3,1-7.8,2.2-14.4,3.6c-6.6,1.4-10.9,2.8-12.9,4.1c-3.1,2.2-4.6,5-4.6,8.3c0,3.3,1.2,6.2,3.7,8.6c2.5,2.4,5.6,3.6,9.4,3.6
				c4.3,0,8.3-1.4,12.2-4.2c2.9-2.1,4.7-4.7,5.6-7.8c0.6-2,0.9-5.9,0.9-11.5V884.8z"/>
			<path class="st8" d="M817.8,927.7h-22v-13.1c-3.7,5.1-8,8.9-12.9,11.4c-5,2.5-10,3.7-15,3.7c-10.3,0-19.1-4.1-26.4-12.4
				c-7.3-8.3-11-19.8-11-34.7c0-15.2,3.6-26.7,10.7-34.6c7.1-7.9,16.1-11.8,27-11.8c10,0,18.6,4.2,25.9,12.5v-44.5h23.7V927.7z
				 M754.6,881.1c0,9.5,1.3,16.5,4,20.7c3.8,6.2,9.2,9.3,16,9.3c5.4,0,10.1-2.3,13.9-6.9c3.8-4.6,5.7-11.6,5.7-20.8
				c0-10.3-1.9-17.7-5.6-22.2c-3.7-4.5-8.5-6.8-14.2-6.8c-5.6,0-10.3,2.2-14.1,6.7C756.5,865.5,754.6,872.2,754.6,881.1z"/>
		</g>
	</g>
</g>
</svg>
